<?xml version="1.0" encoding="utf-8"?>
<!-- Generator: Adobe Illustrator 18.0.0, SVG Export Plug-In . SVG Version: 6.00 Build 0)  -->
<!DOCTYPE svg PUBLIC "-//W3C//DTD SVG 1.1//EN" "http://www.w3.org/Graphics/SVG/1.1/DTD/svg11.dtd">
<svg version="1.1" id="Layer_1" xmlns="http://www.w3.org/2000/svg" xmlns:xlink="http://www.w3.org/1999/xlink" x="0px" y="0px"
	 viewBox="0 0 500 500" enable-background="new 0 0 500 500" xml:space="preserve">
<rect fill="#E7E5E4" width="500" height="500"/>
<g>
	<path fill="#262D3A" d="M187.2,286.4c0,0,29.5,4.3,36-25.1C223.2,261.3,191.8,256.3,187.2,286.4z M222,262.2
		c-5.3,25.7-33.5,23.2-33.5,23.2C196,257.7,222,262.2,222,262.2z"/>
	<path fill="#262D3A" d="M222.7,262.1c0,0-27.9,20.3-34.3,23.8l-0.8-0.6l34.4-23.2L222.7,262.1z"/>
	<polygon fill="#262D3A" points="215.9,267 220.8,267.9 221.2,267.3 216.5,266.3 	"/>
	<polygon fill="#262D3A" points="214.7,267.3 215.1,261.3 215.9,261.4 215.4,266.8 	"/>
	<polygon fill="#262D3A" points="211.3,270.2 217.5,273.7 218.1,273.1 211.9,269.7 	"/>
	<polygon fill="#262D3A" points="210.2,270.2 208.6,262.6 209.3,262.5 211.3,269.6 	"/>
	<polygon fill="#262D3A" points="206,273.5 212.9,278.5 212.5,279 205.4,274.2 	"/>
	<polygon fill="#262D3A" points="203.9,274.5 202.1,264.9 202.5,264.6 205.4,274.2 	"/>
	<polygon fill="#262D3A" points="198.9,278.6 205.2,283.8 205.7,283.3 199.5,277.9 	"/>
	<polygon fill="#262D3A" points="197.8,278.9 195,270.8 195.5,270.3 198.9,278.6 	"/>
	<polygon fill="#262D3A" points="192.6,282.9 196.2,285.6 197,285.6 193.4,282.4 	"/>
	<polygon fill="#262D3A" points="192.7,282.4 190.7,277.8 191.1,276.5 193.8,281.4 	"/>
</g>
<g>
	<path fill="#262D3A" d="M256.3,115.7c-70.9,0.3-57.8,67.8-57.8,67.8C271.2,187.6,256.3,115.7,256.3,115.7z M200.8,181.1
		c0,0-8.6-63.9,53.4-63.2C254.3,117.9,267.4,177.8,200.8,181.1z"/>
	<path fill="#262D3A" d="M254.4,116.3c0,0-46.8,52.1-54.9,64.7l1.5,2l53.3-65L254.4,116.3z"/>
	<polygon fill="#262D3A" points="243.2,129 240.5,117.8 241.8,117 244.6,128.1 	"/>
	<polygon fill="#262D3A" points="242.3,131.6 257,133.5 256.7,131.9 243.7,130.3 	"/>
	<polygon fill="#262D3A" points="235.7,137.8 226.6,122.2 228.1,121.3 237,136.7 	"/>
	<polygon fill="#262D3A" points="235.8,140.1 254.3,147.3 254.7,145.9 237.1,137.9 	"/>
	<polygon fill="#262D3A" points="228.1,147.8 215.3,130.2 214.1,130.8 226.5,148.9 	"/>
	<polygon fill="#262D3A" points="225.9,152.1 249.3,160.8 250,159.9 226.5,148.9 	"/>
	<polygon fill="#262D3A" points="216.5,161.1 203.2,144.6 204.2,143.7 217.9,160.2 	"/>
	<polygon fill="#262D3A" points="215.8,163.4 235.7,173.7 236.8,172.8 216.5,161.1 	"/>
	<polygon fill="#262D3A" points="206.6,173.1 199.5,163.7 199.6,162.1 207.7,171.6 	"/>
	<polygon fill="#262D3A" points="207.7,173.2 219,179.8 222.2,179.6 210.1,171.2 	"/>
</g>
<circle fill="#262D3A" cx="167.3" cy="109.2" r="31.1"/>
<circle fill="#E7E5E4" cx="175.7" cy="115.8" r="16.7"/>
<path fill="#262D3A" d="M157.8,231.1c-7.3,0-13.2,5.9-13.2,13.2c0,7.3,5.9,13.2,13.2,13.2c7.3,0,13.2-5.9,13.2-13.2
	C171,237,165.1,231.1,157.8,231.1z M158.9,255.7c-5.7,0-10.3-4.6-10.3-10.3c0-5.7,4.6-10.3,10.3-10.3c5.7,0,10.3,4.6,10.3,10.3
	C169.2,251.1,164.6,255.7,158.9,255.7z"/>
<g>
	<path fill="#262D3A" d="M85.3,201.1c-1.6,0.9-3.2,1.9-4.6,2.9c-0.3,0-0.4-0.1-0.5-0.3c0.1-0.5,0.6-0.5,1-0.7c0.9-0.6,2-1.3,3-2
		c0.3-0.2,0.6-0.3,0.8-0.5c0.5-0.6,1.3-0.7,1.9-1.2c0.9-0.5,1.7-1.1,2.6-1.6c0.2-0.1,0.4-0.3,0.2-0.5c-0.4-0.3-0.5-0.9-0.8-1.2
		c-0.1-0.1-0.2-0.4-0.4-0.4c-1,0.5-2.2,0.8-3.1,1.5c-1.7,0.8-3.4,1.6-5.2,2.4c-0.5,0.4-1.2,0.5-1.7,0.9c-0.2,0-0.4,0.2-0.6,0
		c0-0.1-0.2-0.2-0.2-0.4c0.9-0.4,1.7-0.7,2.5-1.2c2.2-0.9,4.2-2.2,6.6-2.9c0.3-0.6,1.8-0.5,1.1-1.4c0-0.3-0.3-0.6-0.5-0.7
		c-0.7,0.1-1.2,0.6-1.9,0.7c-0.7,0.3-1.3,0.8-2.1,0.9c-0.5,0.5-1.3,0.5-1.9,0.9c-1.3,0.5-2.7,1.1-4,1.7c-0.2-0.1-0.3,0.2-0.5,0.1
		c0-0.2-0.2-0.5-0.2-0.7c0.7-0.5,1.6-0.6,2.4-1.1c0.6-0.2,1.2-0.5,1.9-0.7c0.5-0.5,1.4-0.5,1.9-0.9c0.7-0.1,1.2-0.7,2-0.8
		c0.6-0.4,1.4-0.5,2-1c0-0.5-0.4-0.9-0.5-1.4c-0.1-0.2-0.3-0.2-0.5-0.1c-2.4,0.6-4.7,1.4-7.1,2c-0.9,0.3-1.9,0.6-2.9,0.9
		c-0.3-0.1-0.1-0.4-0.3-0.6c0.6-0.4,1.6-0.3,2.1-0.7c1.4-0.3,2.7-0.7,4.1-1.1c0.2-0.2,0.6,0,0.9-0.2c0.8-0.4,1.5-0.5,2.4-0.7
		c0.3-0.2,0.8,0,0.9-0.4c0-0.4-0.1-0.7-0.4-0.9c-1.2,0-2.4,0.5-3.6,0.5c-2.1,0.3-4.1,0.8-6.2,1.1c-0.2-0.2-0.4-0.3-0.4-0.5
		c0.2-0.3,0.7-0.2,1.1-0.3c0.6-0.2,1.3,0,1.8-0.3c0,0,0.1,0,0.1,0c1.6-0.3,3-0.5,4.5-0.7c0.7-0.3,1.5-0.3,2.2-0.5
		c0.6-0.5,0-1.2,0.1-1.8c-0.1-0.1,0-0.5-0.3-0.5c-0.5-0.1-1,0.1-1.4,0.1c-1.2-0.2-2.2,0.3-3.4,0.1c-1.6,0.2-3.3,0.3-5,0.3
		c-0.2-0.1-0.3-0.3-0.2-0.5c0.4-0.4,0.8,0.1,1.3-0.1c2.9-0.3,5.7-0.5,8.6-0.6c0.3-0.1,0-0.5,0.1-0.8c-0.5-0.2-1.2-0.1-1.7-0.1
		c-0.8,0-1.7-0.1-2.5,0.1c-0.7-0.2-1.3,0-2.1,0c-1.3,0-2.5,0-3.8,0.1c-0.2-0.1-0.2-0.3-0.2-0.4l0.3-0.2c3.3,0.1,6.6-0.1,9.9-0.1
		c0.2-0.1,0.3-0.2,0.3-0.4c0-0.2,0-0.4,0.1-0.5c0-0.3,0.2-0.9-0.3-0.9c-1.3-0.1-2.5-0.3-3.8-0.5c-0.3,0-0.7,0-1-0.1
		c-0.7-0.1-1.5,0-2.1-0.3c-1.2,0.1-2.2-0.4-3.3-0.3c-0.1-0.2-0.4-0.3-0.3-0.6l0.1-0.1c1.3,0.5,2.9,0.1,4.2,0.6
		c2.2,0.3,4.3,0.6,6.5,0.8c0.3-0.2,0.1-0.7,0.3-1.1c-0.1-0.2,0.1-0.4-0.2-0.5c-1.4-0.3-2.7-0.6-4.2-0.8c-0.5-0.3-1.1-0.3-1.7-0.4
		c-1.2-0.3-2.6-0.4-3.8-0.9v-0.6c0.6-0.1,1.2,0.3,1.8,0.3c1.3,0.5,2.6,0.7,4,1c1.4,0.2,2.8,0.7,4.2,0.8c0.4-0.2,0.1-0.9,0.5-1.2
		c-0.3-0.6-1.1-0.4-1.6-0.8c-0.9-0.3-1.9-0.5-2.7-0.9c-2-0.5-3.9-1.4-5.9-1.9c-0.1-0.1,0-0.3,0-0.4c0.5,0,1,0.2,1.5,0.4
		c2.9,1,5.8,1.9,8.7,2.9c0.5-0.1,0.2-0.7,0.5-0.9c0-0.3-0.4-0.4-0.6-0.5c-1.1-0.4-2.2-1-3.3-1.4c-0.7-0.4-1.5-0.7-2.2-1
		c-1.1-0.6-2.4-0.9-3.5-1.6c-0.4-0.2-0.1-0.5,0-0.7c1.1,0.3,2,0.8,3,1.3c0.6,0.2,1.4,0.5,1.9,0.8c1.7,0.5,3.2,1.5,4.9,2
		c0.4-0.5,0.6-1.1,0.9-1.6c-2-1.5-4.3-2.9-6.4-4.3c-1-0.5-1.8-1.1-2.7-1.7c-0.2-0.1-0.2-0.3,0-0.5c0.6,0.1,1.1,0.7,1.7,1.1
		c1.5,0.8,3,1.9,4.4,2.8c1.1,0.6,2.1,1.4,3.2,2c0.5,0,0.5-0.5,0.7-0.8c0.3-0.2,0.5-0.6,0.5-1c-1.8-1.4-3.6-2.8-5.4-4.2
		c-0.1-0.2-0.4-0.4-0.7-0.5c-0.1-0.1-0.2-0.2-0.4-0.2c-0.6-0.4-1.1-0.8-1.5-1.3c-0.5-0.1-0.8-0.6-1.2-0.9c0-0.2,0.2-0.3,0.2-0.5
		c0.5,0.3,1.1,0.8,1.6,1.2c0.6,0.6,1.4,1,2.1,1.5c0.3,0.2,0.5,0.4,0.7,0.7c1.7,1,3.3,2.5,4.9,3.7c0.3,0.1,0.5-0.3,0.6-0.5
		c0-0.3,0.6-0.4,0.4-0.8c-0.8-0.8-1.7-1.4-2.5-2.1c-0.4-0.3-0.8-0.7-1.3-1c-0.1-0.1-0.3-0.2-0.4-0.3c-0.3-0.2-0.4-0.5-0.8-0.6
		c0-0.2-0.1-0.2-0.3-0.3c-1-1.1-2.4-1.9-3.5-3c-0.1-0.1-0.1-0.3-0.1-0.5c0.5,0.1,0.9,0.7,1.4,1c1.5,1.3,3,2.3,4.5,3.7
		c0,0,0.1,0.1,0.1,0.1c0.7,0.6,1.3,1.1,2.1,1.6c0.4,0.4,0.9,0.6,1.3,1.1c0.3,0,0.5-0.4,0.8-0.6c0.1-0.5-0.4-0.7-0.6-1.1
		c-0.3-0.4-0.8-0.7-1.1-1.1c0-0.1-0.1-0.1-0.1-0.2c-0.9-0.7-1.6-1.6-2.5-2.3c-0.5-0.6-1.2-1.2-1.7-1.9c-0.9-0.6-1.5-1.4-2.3-2.2
		c0.2-0.1,0.2-0.3,0.4-0.3c2.2,2.2,4.4,4.2,6.6,6.4c0.1,0.2,0.3,0.3,0.5,0.5c0.1,0,0.1,0.1,0.1,0.1c0.3,0.5,0.9,0.8,1.2,1.2
		c0.4,0.4,0.6-0.2,0.9-0.3c0.3-0.2,0.5-0.5,0.9-0.6c0.2-0.2,0.2-0.3,0.1-0.5c0,0-0.1-0.1-0.1-0.1c-0.2-0.1-0.2-0.4-0.4-0.5
		c-0.9-1.3-1.8-2.6-2.7-4c-0.7-0.7-1.1-1.6-1.7-2.3c-0.2-0.4-0.6-0.7-0.8-1.1c-0.1-0.2-0.2-0.4-0.4-0.5c-0.1-0.1-0.2-0.2-0.2-0.3
		c-0.1-0.4-0.6-0.5-0.5-0.9c0.1-0.2,0.4-0.2,0.6,0c0,0.2,0.2,0.4,0.2,0.5c0.2,0.3,0.4,0.5,0.5,0.7c0.3,0.4,0.5,0.7,0.8,1.1
		c0.2,0.4,0.5,0.7,0.7,1.1c0.4,0.3,0.5,0.7,0.9,1.1v0.2c0.3,0.4,0.6,0.8,1,1.2c0.2,0.2,0.2,0.5,0.6,0.8c0.2,0.4,0.5,0.5,0.6,0.9
		c0.4,0.5,0.9,1.1,1.2,1.6c0.1,0.2,0.3,0.4,0.5,0.5c0.4,0,0.5-0.3,0.8-0.5c0.4-0.1,0.8-0.3,1.1-0.6c-0.2-0.3-0.4-0.6-0.5-1
		c-0.6-0.9-1-2-1.7-2.9c-0.5-1-1-1.8-1.5-2.8c-0.1-0.2-0.2-0.3-0.3-0.5c-0.7-1-1.1-2.2-1.8-3.3c-0.1-0.2,0.1-0.3,0.2-0.4
		c0.3,0,0.4,0.4,0.5,0.6c0.3,0.4,0.5,0.9,0.8,1.3c0.2,0.3,0.3,0.7,0.5,1c0.1,0.3,0.2,0.6,0.4,0.9c0,0,0,0.1,0.1,0.1
		c0,0.2,0.3,0.4,0.3,0.6c0.3,0.4,0.5,0.9,0.8,1.3c-0.1,0.3,0.3,0.4,0.4,0.7c0.1,0.4,0.4,0.8,0.6,1.1c0,0.2,0.2,0.4,0.3,0.7
		c0.3,0.2,0.4,0.5,0.5,0.8c0,0.2,0.4,0.4,0.4,0.7c0.4,0.3,0.4,1.1,1.1,0.8c0.2-0.1,0.3-0.2,0.4-0.3c-0.3-1.1-0.9-2.1-1.3-3.2
		c-0.3-0.5-0.4-1-0.6-1.5c-0.1-0.7-0.5-1.2-0.7-1.8c0,0,0,0-0.1,0c-0.3-0.3-0.2-0.7-0.4-0.9c-0.1-0.6-0.5-1.1-0.6-1.7
		c-0.3-0.8-0.8-1.6-1-2.3c0.1-0.1,0.1-0.3,0.2-0.3c0.1,0,0.2,0,0.3,0.1c0,0.3,0.2,0.5,0.2,0.8c0.4,0.2,0.1,0.8,0.5,1.1
		c0,0.4,0.3,0.5,0.3,0.9c0.2,0.4,0.3,0.9,0.5,1.3c0.2,0.3,0.3,0.7,0.5,1c0.1,0.3,0.2,0.6,0.3,1c0.2,0.3,0.4,0.7,0.5,1.1
		c0.4,0.5,0.6,1.3,0.8,1.9c0.2,0.3,0.3,0.7,0.5,1.1c0.1,0.5,0.3,0.8,0.5,1.2c0.5,0.1,1-0.3,1.3-0.6c0-0.4-0.2-0.7-0.3-1.1
		c-0.3-0.6-0.5-1.2-0.8-1.8c-0.1-0.5-0.2-1-0.5-1.4c-0.1-0.5-0.4-0.9-0.6-1.4c-0.1-0.2-0.1-0.4-0.2-0.6c-0.5-1.1-0.8-2.3-1.4-3.3
		c0-0.7-0.9-1.5-0.1-2c0.2,0,0.4,0.2,0.6,0.4c-0.1,0.5,0.3,0.9,0.3,1.4c0.4,0.3,0.2,0.8,0.5,1.2c0,0.6,0.5,1,0.5,1.6
		c0.3,0.1,0,0.4,0.2,0.5c0.1,0.3,0.2,0.6,0.3,0.9c0.1,0.2,0.1,0.3,0.2,0.4c0,0.5,0.3,0.8,0.4,1.3c0.2,0.1,0,0.3,0.2,0.4
		c0.4,1.1,0.9,2.1,1.3,3.2c0.5,0.3,0.9-0.2,1.4-0.2c0.3-0.1,0.2-0.5,0.1-0.8c-0.4-1.4-0.6-2.9-1-4.3c-0.1-0.3-0.2-0.7-0.3-1
		c0-1.1-0.6-1.9-0.6-3c-0.2-0.1,0-0.4-0.2-0.5c-0.2-1.1-0.4-2.1-0.5-3.2c0.2-0.2,0.3-0.2,0.5-0.1c0.3,0.9,0.4,1.8,0.5,2.7
		c0.2,0.4,0.1,0.9,0.4,1.3c0,0.5,0.3,1,0.2,1.6c0.1,0.4,0.2,0.8,0.3,1.2c0.1,0.4,0.2,0.7,0.3,1.1c0.2,0.9,0.3,1.8,0.5,2.8
		c0.2,0.6,0.2,1.2,0.4,1.8c0.1,0.2,0.4,0.2,0.6,0.2c0.3-0.2,0.6-0.2,0.9-0.3c0.3-0.1,0.6-0.2,0.9-0.4c-0.2-1.4-0.2-2.7-0.4-4
		c0-0.1,0-0.3-0.1-0.4c0-0.9-0.4-1.9-0.2-2.7c-0.2-0.2,0-0.5-0.1-0.8c-0.2-1.3-0.2-2.8-0.5-4.3c0.1-0.1-0.1-0.1,0-0.2
		c0.1,0,0.3-0.1,0.5,0c0.3,0.4,0,1,0.3,1.4c0.2,2.2,0.5,4.5,0.7,6.8c0,0.1,0,0.2,0,0.2c0.1,1.2,0.4,2.5,0.5,3.7c0.3,0.4,0.6,0,1,0
		l0.2-0.2c-0.1-1.2-0.1-2.3-0.1-3.5c0-1-0.1-1.9-0.2-3c0-0.6,0.1-1.5-0.1-2.1c0-1.1,0-2.3-0.1-3.2c0-0.3,0.4-0.2,0.5-0.2
		c0,2.5,0.4,5,0.3,7.6c0,0.3,0.1,0.6,0.1,0.8c0.1,1.1,0.1,2.2,0.2,3.2c0.3,0.5,1,0.1,1.5,0.1c0.2,0,0.4,0,0.5-0.3
		c0.1-0.9,0.2-1.9,0.2-3c0-1.1,0-2.3,0-3.2l0.1-5.1c0.1-0.1,0.4-0.2,0.6-0.1c0.3,0.4,0.2,1.2,0.1,1.8c-0.2,0.8,0,1.3,0,2.1
		c0,1.6-0.1,3.1-0.2,4.5c0,0.9-0.1,1.8-0.1,2.8c0.2,0.6,1.1,0.3,1.6,0.3c0.6-0.7,0.5-1.8,0.7-2.7c0.1-0.1,0.1-0.3,0.1-0.4
		c0-0.2,0-0.4,0.2-0.5c0.1-0.6,0.2-1.1,0.2-1.7c0.3-0.4,0-0.8,0.3-1.2c0-0.5,0.3-0.8,0.2-1.4c0.2-0.3,0.1-0.8,0.3-1.2
		c-0.1-0.4,0.1-0.7,0.1-1c0.2-0.3,0-1,0.4-1c0.3,0,0.5,0.2,0.4,0.5c-0.2,0.4-0.1,1-0.4,1.4c0,0.9-0.4,1.8-0.4,2.7
		c-0.1,0.1-0.1,0.4-0.2,0.5c-0.2,0.9-0.5,1.7-0.5,2.7c0,0,0,0.1-0.1,0.1c-0.2,0.3-0.1,0.7-0.3,1.1c0.1,0.7-0.4,1.3-0.2,2.1l0.2,0.2
		l2,0.3c0.2-0.2,0.3-0.4,0.3-0.7c0.3-0.6,0.5-1.3,0.8-1.9c-0.1-0.2,0.2-0.3,0.1-0.6c0-0.1,0.1-0.3,0.2-0.4c0.1-0.3,0.2-0.5,0.3-0.8
		c0.4-0.5,0.2-1.2,0.6-1.7c0.1-0.5,0.5-0.9,0.4-1.4c0.1-0.4,0.3-0.9,0.5-1.3c0-0.2,0.2-0.3,0.1-0.5c0.1-0.3,0.2-0.7,0.4-1
		c0-0.3,0-0.4,0.3-0.5c0.2,0,0.4,0.1,0.6,0.2c-0.1,0.4-0.2,0.7-0.3,1.1c0.1,0.4-0.3,0.6-0.3,1.1c-0.6,0.5-0.4,1.4-0.8,2
		c0,0.7-0.7,1.1-0.6,1.8c-0.2,0.3-0.3,0.7-0.4,1.1c0,0,0,0,0,0.1c-0.2,0.5-0.4,1-0.6,1.6c-0.2,0.6-0.3,1.1-0.5,1.7
		c-0.1,0.1-0.2,0.3-0.1,0.5c0.2,0.1,0.5,0.3,0.9,0.2c0.4-0.4,0.4-0.9,0.7-1.4c0-0.3,0.3-0.4,0.3-0.7c0.3-0.5,0.4-1.1,0.8-1.6
		c0-0.1,0-0.2,0.1-0.3h0h0.6c-0.1,0.3-0.2,0.6-0.4,0.8c-0.1,0.5-0.4,1.1-0.5,1.6c0,0-0.1,0-0.1,0.1c0.1,0.3-0.2,0.3-0.1,0.6
		c-0.3,0.4-0.5,0.8-0.5,1.3c0.4,0.5,1.1,0.4,1.6,0.8c0.2,0.1,0.2,0.1,0.4,0c0.2-0.4,0.6-0.8,0.7-1.2c0.1-0.2,0.2-0.3,0.3-0.5
		c0.2-0.3,0.3-0.5,0.5-0.8c0.1-0.1,0.2-0.3,0.3-0.5c0.2-0.5,0.5-1,0.8-1.4c-0.1-0.2,0.2-0.4,0.3-0.6c0,0,0,0,0-0.1
		c0.3-0.3,0.3-0.6,0.5-0.9c0-0.3,0.4-0.4,0.3-0.7c0.2-0.1,0.3-0.4,0.4-0.7c0.1-0.2,0.2-0.4,0.4-0.6c0.1-0.3,0.3-0.5,0.5-0.8
		c0.1-0.1,0.4-0.1,0.5,0.1c0.2,0.3-0.3,0.4-0.3,0.7c-0.2,0.1-0.1,0.4-0.2,0.6c-0.2,0.4-0.6,0.7-0.7,1.2c-0.4,0.3-0.2,0.8-0.6,1.1
		c0,0,0,0,0,0.1c-0.2,0.5-0.6,0.9-0.8,1.4c0,0.2-0.3,0.3-0.3,0.6c-0.3,0.3-0.2,0.8-0.5,1c-0.1,0.4-0.5,0.7-0.6,1.2
		c-0.3,0.4-0.4,0.9-0.6,1.4c0.3,0.4,0.8,0.8,1.2,0.8c0.6-0.9,1.2-1.7,1.8-2.7c0.3-0.4,0.6-0.9,1-1.4c0.1-0.4,0.5-0.6,0.7-1
		c0.2-0.4,0.5-0.8,0.7-1.2c0.1-0.1,0.1-0.3,0.2-0.4c0-0.1,0.1-0.3,0.2-0.3c0.2-0.3,0.5-0.5,0.6-0.9c0.4-0.3,0.5-1.1,1.1-1
		c0.3,0.1,0,0.3,0,0.5c0,0-0.5,0.7-0.7,1.2c-0.3,0.3-0.5,0.7-0.7,1c-0.2,0.3-0.4,0.5-0.6,0.8c0,0,0,0.2-0.1,0.2
		c-0.1,0.4-0.5,0.6-0.7,1c-0.1,0.5-0.5,0.8-0.8,1.2c-0.2,0.3-0.3,0.5-0.5,0.8c-0.1,0.3-0.3,0.6-0.5,0.8c-0.2,0.6-0.8,1.1-1.1,1.6
		v0.4c0.5,0.3,0.9,0.9,1.5,0.9c0.3-0.1,0.1-0.4,0.4-0.5c0.1-0.1,0.3-0.3,0.3-0.5c0.8-0.7,1.3-1.6,2-2.2c0.5-0.6,1-1.2,1.5-1.9
		c0.1,0,0.1,0,0.1-0.1c0-0.2,0.4-0.2,0.3-0.4c0.6-0.6,0.9-1.2,1.6-1.8c0.1-0.1,0.1-0.3,0.2-0.4c0.1-0.1,0.2-0.1,0.3-0.1
		c0.2,0,0.4-0.1,0.6,0.1c0,0,0,0,0,0.1c-0.1,0.4-0.7,0.7-0.9,1.1c-0.3,0.4-0.9,0.7-1.1,1.3c-0.2,0.1-0.3,0.4-0.5,0.6
		c-0.5,0.3-0.6,0.9-1.1,1.2c-0.4,0.5-0.8,1-1.3,1.6c-0.1,0.3-0.5,0.4-0.5,0.8c-0.5,0.2-0.6,0.7-0.9,1c-0.3,0.2-0.3,0.5-0.6,0.8
		c0,0.1,0.1,0.1,0.1,0.2c0.2,0.3,0.4,0.4,0.6,0.6c0.3,0,0.6-0.4,0.8-0.6c0.1,0,0.1-0.1,0.2-0.1c0.3-0.5,0.8-0.8,1.2-1.2
		c0.3-0.1,0.4-0.4,0.7-0.5c0.8-0.8,1.7-1.5,2.5-2.3c0.6-0.5,1.2-1,1.6-1.6c0.2-0.1,0.5-0.1,0.7-0.1c0.1,0.1,0.1,0.3,0,0.4
		c-0.9,0.8-1.9,1.6-2.7,2.5c-0.8,0.5-1.1,1.3-1.9,1.7c-0.2,0.4-0.7,0.6-1,1c-0.1,0.1-0.2,0.2-0.4,0.3c-0.1,0.1-0.1,0.1-0.1,0.2
		c-0.2,0.1-0.4,0.3-0.5,0.5h-0.1c-0.1,0.2-0.4,0.3-0.3,0.6c0.4,0.4,0.6,1.2,1.3,1c0.9-0.7,1.7-1.5,2.5-2.2c0.1-0.1,0.2-0.2,0.3-0.3
		c1.3-0.9,2.3-2,3.5-3c0.3,0,0.7-0.5,0.9-0.1c-0.1,0.5-0.5,0.6-0.8,0.9c-0.3,0.2-0.4,0.5-0.8,0.7c-0.5,0.7-1.3,1.2-2,1.7
		c-0.3,0.2-0.6,0.5-0.9,0.8c-0.2,0.1-0.3,0.2-0.4,0.4c-0.5,0.3-0.7,0.8-1.3,1c-0.1,0.2-0.4,0.4-0.6,0.5c-0.2,0.1-0.4,0.4-0.2,0.7
		c0.1,0.2,0.2,0.4,0.4,0.5c0.6-0.1,1-0.5,1.4-0.7c1.3-1.1,2.8-2,4.2-2.9c0,0,0.1-0.1,0.1-0.1c0.2-0.2,0.5-0.4,0.7-0.5
		c0.1,0,0.2-0.1,0.3-0.2c0.5-0.1,1.1-1.2,1.7-0.6c-0.1,0.3-0.5,0.4-0.8,0.6c-0.3,0.3-0.7,0.5-1,0.7c-0.6,0.4-1.1,0.8-1.6,1.2
		c-1.1,0.7-2.1,1.5-3.2,2.1c-0.3,0.4-0.9,0.5-1.1,1c-0.1,0.1-0.2,0.1-0.3,0.2c0.1,0.4,0,1,0.5,1c0.7-0.5,1.6-0.7,2.3-1.4
		c0.9-0.6,2.1-1,2.9-1.7c0.6-0.3,1.2-0.7,1.8-1c0.6-0.2,1.1-1.2,1.7-0.4c0.1,0.5-0.5,0.3-0.7,0.5c-0.6,0.4-1.1,0.9-1.8,1.2
		c-0.4,0.4-0.9,0.7-1.4,0.8c-1.2,0.7-2.4,1.5-3.7,2.1c-0.3,0-0.6,0.1-0.8,0.3c0,0.3,0.3,0.5,0.2,0.9c0.2,0.3,0.6,0.4,0.9,0.3
		c0.4-0.2,0.9-0.4,1.3-0.5c0.8-0.5,1.6-0.8,2.4-1.2c1.3-0.7,2.7-1.2,3.9-1.9c0.4,0,0.6-0.2,1-0.1c0.2,0.1,0.1,0.5,0,0.7
		c-1,0.2-1.6,0.7-2.6,0.9c-1,0.5-2.2,0.9-3.2,1.5c-0.3-0.1-0.4,0.2-0.7,0.3c-0.9,0.3-1.7,0.8-2.5,1.4c0,0.3,0.4,0.3,0.4,0.6
		c0.1,0.2,0.3,0.5,0.5,0.5c0.9-0.1,1.5-0.8,2.5-1c1.1-0.6,2.3-1.1,3.4-1.6c0.8-0.5,1.6-0.8,2.6-1.1c0.2-0.1,0.4,0.1,0.3,0.3v0.1
		c-1,0.5-1.9,0.9-2.8,1.2c-0.2,0.5-0.9,0.4-1.2,0.7c-0.9,0.6-2,0.9-3,1.3c-0.3,0.1-0.5,0.2-0.8,0.4c-0.2,0.4-0.9,0-0.9,0.7
		c0.3,0.4,0.5,0.8,0.9,1c0.9-0.1,1.9-0.6,2.9-0.8c0.6-0.3,1.3-0.4,2-0.7c0.6,0,1.2-0.5,1.8-0.5c0.5-0.4,1.3-0.2,1.8-0.6
		c0.1,0,0.2,0,0.3,0.1l0,0.4c-0.9,0.2-1.8,0.5-2.7,0.8c-1,0.3-2.1,0.5-3.1,1c-1,0.2-2,0.5-2.9,0.8c-0.1,0.1-0.2,0.2-0.2,0.4
		c0.4,0.3,0.2,0.8,0.5,1.1c0,0.2-0.1,0.5,0.2,0.5c1.5-0.3,3.1-0.5,4.5-0.9c1.1-0.1,2-0.6,3.1-0.6c0.5-0.1,0.9-0.3,1.4-0.3
		c0.1,0.2,0.2,0.4,0.2,0.7c-1.6,0.1-2.9,0.8-4.5,0.9c-0.5,0.2-1.1,0.1-1.5,0.4c-0.9,0-1.6,0.4-2.4,0.3c-0.2,0.1-0.5,0-0.7,0.2
		c0.1,0.4,0,0.8,0.2,1.1l0,0c-0.1,0.1,0.1,0.2,0.2,0.3c1.6-0.1,3.5-0.2,5.1-0.4c1.2,0,2.5-0.3,3.6-0.3c0.1,0.1,0.2,0.2,0.2,0.4
		c-0.3,0.3-0.9,0.1-1.3,0.3c-1-0.1-2.1,0.3-3.2,0.2c-1.5,0-2.8,0.3-4.2,0.4c-0.3,0.2-0.3,0.4-0.2,0.7c0.1,0.3,0.2,0.6,0.2,0.9
		c0,0.2-0.1,0.4,0.1,0.5c1.1,0.2,2.2,0,3.4,0.1c0.8-0.2,1.6-0.2,2.4,0c0.9-0.1,2,0,2.9-0.1c0.1,0.1,0.5,0.2,0.4,0.5
		c-0.7,0.3-1.6,0-2.3,0.1c-2.1,0-4.1-0.2-6.1-0.2c-0.2,0.1-0.7-0.1-0.8,0.3c0.1,0.5-0.4,1.1-0.2,1.6c1.3,0.4,2.8,0.6,4.1,1
		c1.4,0.1,2.7,0.7,4.1,0.8c0.4,0.1,1,0,1.1,0.5c0,0.2-0.1,0.2-0.2,0.3c-1.3-0.2-2.5-0.6-3.8-0.8c-1.7-0.3-3.4-0.6-5-1.1
		c-0.2,0-0.4,0-0.5,0.2c-0.3,0.3,0.1,1-0.4,1.2c-0.1,0.7,0.7,0.5,1.1,0.9c0.7,0.2,1.4,0.5,2.1,0.7c1.2,0.2,2.1,1,3.3,1.1
		c0.8,0.3,1.7,0.5,2.6,0.9c0,0.2-0.2,0.3-0.2,0.6c-0.3,0-0.5-0.2-0.9-0.3c-0.6-0.1-1.2-0.4-1.8-0.5c-0.7-0.3-1.4-0.5-2.1-0.6
		c-1.4-0.7-2.9-1.1-4.4-1.6c-0.4,0.2-0.2,0.7-0.6,0.9c0,0.3-0.3,0.6,0,0.9c2.6,1,5.2,2.1,8,3.2c0.2,0.1,0.5,0,0.6,0.3
		c0.1,0.2,0,0.3-0.2,0.4c-0.6-0.1-1.2-0.5-1.8-0.7c-0.7-0.3-1.4-0.4-1.9-0.8c-0.8-0.2-1.5-0.5-2.1-0.8c-1.1-0.3-2-1-3.1-1
		c-0.3,0.4-0.5,0.8-0.8,1.1c-0.1,0.4,0.3,0.5,0.6,0.6c2.7,1.3,5.3,2.5,8,3.6c0.2,0.2,0,0.3-0.1,0.5c-0.2,0.1,0,0.3-0.2,0.4
		c-0.7,0-1.4-0.7-2.1-0.9c-0.8-0.4-1.8-0.7-2.5-1.2c-1.1-0.4-2.1-1-3.1-1.4c-0.4-0.2-0.8-0.6-1.4-0.5c-0.4,0.2-0.4,0.6-0.8,0.8
		c-0.2,0.5,0.4,0.6,0.6,0.8c1.7,1.1,3.4,2.5,5,3.6c0,0,0,0,0,0c0.6,0.3,1.2,0.7,1.8,1.1c0,0.2,0.3,0.4,0.1,0.7
		c-0.6,0.1-0.9-0.7-1.6-0.8c-0.3-0.3-0.8-0.7-1.2-1c-0.2-0.1-0.3-0.2-0.5-0.4c-0.5-0.1-0.8-0.7-1.2-0.8c-0.2-0.4-0.8-0.4-1.1-0.8
		c-0.6-0.7-1.6-1-2.2-1.7c-0.2-0.1-0.4-0.2-0.6-0.1c-0.2,0.3-0.7,0.5-0.7,0.9c0.6,0.6,1.2,1.4,1.9,1.9c0,0.3,0.4,0.4,0.5,0.5
		c0.1,0.1,0.2,0.2,0.3,0.3c0.6,0.6,1.2,1.2,1.8,1.8c0.5,0.3,0.9,0.9,1.4,1.3c0.4,0.6,1.1,1.1,1.6,1.7c-0.2,0.1-0.1,0.3-0.3,0.3
		c-0.4-0.5-1.1-0.7-1.3-1.2c-0.8-0.6-1.3-1.3-2-2c-0.7-0.4-1.2-1.3-1.9-1.8c0,0,0,0,0,0c-0.8-0.8-1.6-1.7-2.5-2.5
		c-0.5,0.1-0.7,0.6-1.2,0.9c-0.1,0.2-0.4,0.1-0.4,0.4c0.1,0.4,0.6,0.6,0.8,1c0.1,0.1,0.2,0.2,0.3,0.3c0.9,0.8,1.6,1.7,2.5,2.3
		c0.2,0.4,0.7,0.7,1.1,1.1c0.3,0.4,0.7,0.7,1.1,0.9c0.2,0.3,0.5,0.5,0.8,0.7c0.4,0.4,0.8,0.9,1.3,1.2c0.3,0.1,0,0.3,0,0.5
		c-0.2,0.1-0.2,0.3-0.4,0.2c-0.8-0.8-1.6-1.6-2.5-2.5c-0.2-0.3-0.7-0.7-1-0.9c-0.5-0.5-1.1-1-1.6-1.5c-0.7-0.6-1.4-1.3-2-2
		c-0.3-0.3-0.6-0.6-0.9-0.9c-0.5,0.1-0.8,0.6-1.3,0.9c0,0-0.1,0.1-0.1,0.1c0.1,0.3,0.6,0.2,0.7,0.6c1,1.1,1.8,2.2,2.9,3.2
		c0.3,0.6,1,1.1,1.4,1.7c0.9,0.8,1.6,2,2.6,2.7c0.1,0,0.1,0.1,0.1,0.2c0,0.1,0,0.2,0,0.2c-0.1,0.2-0.5,0.1-0.7,0.1
		c-0.1-0.1-0.1-0.2-0.2-0.3c-0.6-0.7-1.4-1.3-1.9-2c-1-1.2-2.2-2.2-3.1-3.5c-0.7-0.5-1.1-1.4-1.8-1.8c-0.3-0.2-0.3-0.7-0.8-0.6
		c-0.3,0.4-0.8,0.3-1.1,0.7c0.2,0.5,0.5,0.8,0.7,1.2c1.5,1.9,2.8,4,4.2,6h-0.6h0c-0.2-0.3-0.4-0.5-0.6-0.8c0-0.2-0.1-0.3-0.2-0.4
		c-0.4-0.6-0.8-1.3-1.3-1.9c-0.4-0.8-1.1-1.3-1.4-2.1c-0.5-0.6-0.9-1.3-1.4-1.7c-0.2,0-0.5,0-0.6,0.3c0.3,0.6,0.5,1.2,0.9,1.7
		c0,0.3,0.3,0.4,0.3,0.6c0.5,0.9,1,1.8,1.5,2.6c0.1,0.2,0.2,0.4,0.3,0.5c0.2,0.3,0.4,0.7,0.6,1.1c0.3,0.7,0.6,1.3,1.1,1.9
		c0.2,0.5,0.4,0.9,0.8,1.4c0.1,0.4,0.7,0.8,0.2,1.2c-0.4,0.2-0.5-0.1-0.7-0.3c-0.1-0.4-0.2-0.8-0.5-1.1c0-0.2-0.3-0.3-0.3-0.6
		c-0.3-0.4-0.5-1-0.8-1.4c0-0.2-0.4-0.4-0.3-0.7c-0.1-0.1-0.2-0.3-0.3-0.4c-0.3-0.4-0.5-0.7-0.6-1.2c-0.2-0.2-0.2-0.4-0.4-0.6
		c-0.2-0.9-0.9-1.6-1.2-2.4c-0.4-0.7-0.8-1.3-1.2-2c-0.7-0.2-1.2,0.4-1.7,0.7c0.2,0.8,0.8,1.5,1,2.3c0.4,0.5,0.5,1,0.9,1.5
		c0.1,0.5,0.5,0.8,0.7,1.4c0.2,0.1,0.3,0.3,0.3,0.5c0.1,0.2,0.1,0.3,0.2,0.5c0.3,0.2,0.2,0.7,0.5,0.8c0.1,0.5,0.5,0.9,0.6,1.4
		c0.1,0,0.1,0.1,0.2,0.2c0.1,0.5,0.5,0.8,0.6,1.3c0.2,0.4,0.5,0.7,0.5,1.1c0,0.2-0.3,0.3-0.5,0.2c-0.3-0.7-0.9-1.4-1.1-2.1
		c-0.3-0.5-0.6-1.1-0.9-1.6c0-0.3-0.2-0.5-0.3-0.7c-0.2-0.3-0.3-0.7-0.5-1c-0.1-0.1-0.1-0.2-0.2-0.3c-0.1-0.5-0.2-0.6-0.5-1
		c-0.3-0.8-0.8-1.6-1.1-2.4c-0.3-0.5-0.6-1.1-0.8-1.6c-0.1-0.1-0.3-0.2-0.4-0.1c-0.3,0.1-0.5,0.3-0.6,0.5c0.2,0.7,0.5,1.5,0.8,2.2
		c0.2,0.4,0.2,1,0.5,1.4c0.2,0.4,0.2,0.8,0.5,1.2c0,0.1,0,0.1,0,0.2c0.1,0.2,0.1,0.4,0.2,0.6c0.1,0.6,0.5,0.9,0.5,1.6
		c0.3,0.6,0.5,1.2,0.8,1.8c0.1,0.4,0.3,0.8,0.5,1.2c0.2,0.3,0.4,0.7,0.3,1.1c-0.2,0-0.4,0.1-0.6,0.1c-0.4-0.9-0.7-1.9-1.2-2.8
		c-0.2-0.7-0.2-1.3-0.7-1.9c-0.2-0.6-0.4-1.1-0.7-1.6c-0.1-0.1-0.1-0.2-0.2-0.4c-0.3-0.9-0.6-1.7-0.9-2.7c-0.2-0.5-0.5-1-0.6-1.5
		c-0.3-0.4-0.8,0-1.2,0.1c-0.3,0.1-0.1,0.5-0.1,0.8c0.1,0.3,0,0.7,0.3,1c-0.1,0.6,0.3,1,0.3,1.6c0.1,0.4,0.2,0.7,0.3,1.1
		c0.2,0.8,0.3,1.6,0.5,2.4c0.3,0.2,0,0.6,0.3,0.8c-0.1,0.4,0.2,0.6,0.2,1c0.1,0.2,0.1,0.5,0.1,0.7c0.3,0.4,0,1.1,0.4,1.5
		c-0.1,0.3,0.2,0.5,0,0.7c-0.1,0.1-0.4,0-0.5,0c-0.2-0.9-0.4-1.7-0.6-2.6c-0.2-0.5-0.1-1.2-0.4-1.7c-0.3-1-0.5-1.9-0.7-2.9
		c-0.2-1-0.4-1.9-0.7-2.8c0-0.5-0.2-0.8-0.3-1.2c-0.1-0.1-0.3-0.1-0.4,0c-0.1,0.2-0.1,0.5-0.1,0.7c0,1.1,0.2,1.9,0.2,3
		c0.1,0.1,0.1,0.2,0.1,0.4c0,0.4,0,0.8,0.1,1.2c-0.1,0.5,0.1,1.2,0.1,1.8c0.1,1,0.1,2.2,0.3,3.2l0,1.3c0,0.1,0.1,0.1,0.1,0.2
		c-0.2,0.1-0.5,0.3-0.8,0.1c-0.2-2.6-0.3-5.3-0.6-7.8c0-0.3-0.1-0.6-0.1-0.8c0-1.1-0.1-2-0.3-3c-0.6,0.1-1.2,0.1-1.8,0.3
		c-0.1,0-0.3,0.1-0.3,0.3c0,1.1,0.1,2.2,0.1,3.3c0,2.4,0.1,4.8,0.1,7.3l0,1.2h-0.5c0-0.5-0.1-0.9,0-1.3c0-2.4-0.1-4.8-0.1-7.2
		c0-1.1-0.1-2.2-0.1-3.3c-0.3-0.2-0.3,0-0.7,0c-0.2,0.2,0,0.6-0.2,0.9l0,1.6c-0.1,0.3-0.1,0.6-0.2,0.9c0,0.2,0,0.5-0.1,0.7
		c-0.2,1-0.2,2.1-0.3,3.1c-0.2,1.1-0.1,2-0.3,3.1v1.5c-0.1,0.2-0.4,0.1-0.6,0.1c0-0.5-0.1-1.1,0.1-1.6c-0.1-1.3,0.2-2.6,0.2-3.7
		c0.2-1.1,0.3-2.1,0.3-3.1c0-0.5,0-1.1,0.1-1.7c0.1-0.3,0-0.8,0.1-1.1c0.1-0.1,0-0.3,0-0.4l-0.1-0.1h-1.6c-0.5,0.2-0.1,0.9-0.4,1.2
		c0,0.7-0.2,1.4-0.4,2.2c-0.1,0.3-0.1,0.6-0.1,0.9c-0.3,1.5-0.4,3-0.7,4.5c-0.2,0.8-0.1,1.8-0.5,2.6c-0.1,0-0.3,0-0.4-0.1
		c0.1-1,0.2-1.9,0.5-2.8c0.2-1.1,0.3-2.2,0.5-3.3c-0.1-0.6,0.2-1.1,0.3-1.7c0-0.2,0-0.4,0-0.6c0-0.3,0.2-0.7,0.1-1.1
		c-0.1-0.1-0.1,0.1-0.2,0.1c0,0.4-0.2,0.8-0.3,1.2c-0.2,0.1-0.1,0.3-0.1,0.4c0,0,0,0.1-0.1,0.1c-0.1,0.4-0.1,1-0.4,1.3
		c0.1,0.3-0.2,0.4-0.2,0.7c-0.3,0.5-0.2,1.1-0.5,1.6c0.1,0.5-0.5,0.9-0.3,1.4c-0.1,0.1-0.1,0.4-0.2,0.5c-0.2,0.6-0.3,1.3-0.6,1.8
		l-0.6-0.2c0.3-1,0.5-2.1,0.9-3.1c0-0.4,0.2-0.7,0.3-1c0-0.5,0.4-0.9,0.3-1.3c0.2-0.4,0.3-0.8,0.4-1.3c0.2-0.1,0-0.4,0.1-0.5
		c0,0,0,0,0-0.1c0.3-0.6,0.3-1.2,0.5-1.8c0-0.3,0.3-0.5,0.2-0.9c0.2-0.1,0.1-0.4,0.1-0.6c-0.4-0.4-1.1-0.2-1.6-0.3
		c-0.2,0.3-0.3,0.6-0.5,0.9c0,0.6-0.5,0.9-0.5,1.5c-0.1,0.4-0.3,0.7-0.4,1.1c0,0-0.1,0-0.1,0c-0.1,0.1,0.1,0.3-0.2,0.4
		c-0.2,0.8-0.5,1.6-0.9,2.4c0,0.6-0.4,1.2-0.7,1.7c0,0.3-0.3,0.5-0.3,0.9c-0.1,0.1-0.1,0.2-0.1,0.3c-0.1,0.1-0.2,0.4-0.3,0.6
		c-0.2,0.1-0.3,0-0.5-0.1c0.2-0.5,0.3-1.2,0.7-1.7c0-0.3,0.2-0.4,0.2-0.7c0.2-0.7,0.6-1.4,0.8-2.1c0.2-0.1,0-0.4,0.2-0.5
		c0.2-0.3,0.3-0.7,0.4-1.1c0-0.1,0.1-0.2,0.2-0.3c-0.1-0.3,0.4-0.5,0.3-0.8c0.3-0.4,0.2-0.9,0.5-1.2c-0.1-0.4,0.4-0.4,0.3-0.9
		c0.1,0,0-0.2,0.1-0.3c0-0.2-0.2-0.2-0.4-0.3c-0.3,0-0.2,0.3-0.4,0.4c-0.1,0.6-0.6,1-0.7,1.6c-0.3,0.3-0.3,0.7-0.4,1.1
		c-0.4,0.1-0.3,0.5-0.5,0.7c0,0,0,0-0.1,0.1c0.1,0.3-0.2,0.3-0.3,0.5c-0.1,0.6-0.4,0.9-0.6,1.4c-0.3,0.4-0.5,0.8-0.6,1.2
		c-0.1,0.5-0.5,0.7-0.6,1.2c-0.3,0.2-0.1,0.7-0.5,0.9v0.2h-0.2c-0.1-0.1-0.3-0.1-0.5-0.2c0.2-0.3,0.4-0.7,0.5-1
		c0.1-0.6,0.7-1,0.8-1.6c0.3-0.2,0.2-0.6,0.5-0.8c0.2-0.5,0.4-1,0.8-1.4c0.1-0.1,0.1-0.3,0.2-0.4c0.2-0.5,0.4-1,0.7-1.5
		c0.3-0.3,0.3-0.8,0.6-1.1c0-0.4,0.4-0.6,0.4-1c0.1-0.1,0.2-0.2,0.2-0.3c-0.4-0.4-1-0.2-1.4-0.5l-1.2-0.3c-0.6,0.4-0.8,1.1-1.2,1.6
		c0,0.3-0.4,0.3-0.3,0.6c-0.4,0.5-0.6,1-1,1.5c0,0.3-0.3,0.4-0.4,0.6c-0.1,0.1-0.2,0.2-0.2,0.3c-0.1,0.2-0.1,0.5-0.4,0.7
		c-0.1,0.3-0.4,0.5-0.5,0.9c-0.2,0.2-0.2,0.4-0.5,0.6c-0.2,0.4-0.5,0.7-0.7,1.1c-0.1,0.2-0.3,0.4-0.4,0.6c-0.2,0-0.4-0.1-0.5-0.2
		c0.3-0.4,0.7-1,1-1.6c0.1-0.2,0.3-0.3,0.4-0.5c0.1-0.2,0.2-0.5,0.3-0.7c0.3-0.3,0.3-0.6,0.6-1c0.1-0.1,0.1-0.2,0.2-0.2v-0.1
		c0.6-0.6,0.6-1.2,1.3-1.8c0,0,0.1-0.1,0.1-0.3c0.2-0.4,0.5-0.5,0.6-1c0.1-0.2,0.2-0.4,0.4-0.5c0.1-0.3,0.3-0.5,0.4-0.8l-0.1-0.1
		c-0.3,0.2-0.4,0.6-0.6,0.8c-0.2,0.4-0.4,0.7-0.7,1.1c0,0.2-0.3,0.3-0.3,0.5c-0.2,0.2-0.3,0.4-0.4,0.6h0c-0.4,0.6-0.8,1.2-1.2,1.8
		c-0.3,0.4-0.6,0.8-0.8,1.2l0,0.1c-0.3,0.6-0.7,1.1-1.1,1.6c0,0.2-0.2,0.4-0.3,0.5c-0.1,0-0.3-0.1-0.4-0.2c0-0.1,0.1-0.2,0.2-0.3
		c0.2-0.3,0.1-0.8,0.5-1.1c-0.1-0.2,0.2-0.2,0.1-0.4c0.4-0.4,0.5-0.9,0.9-1.2c0-0.1,0.1-0.2,0.1-0.3c0.1-0.3,0.3-0.5,0.5-0.7
		c0.1-0.3,0.4-0.5,0.4-0.7c0.3-0.2,0.2-0.6,0.5-0.7c0.7-1,1.2-1.9,1.8-2.9c0.1-0.2-0.1-0.4-0.1-0.4c-0.7-0.4-1.4-0.8-2.2-1.2
		c-0.3,0.4-0.9,0.7-1,1.2c-0.1,0.1-0.4,0.3-0.4,0.5c-0.3,0.2-0.6,0.6-0.8,1c-0.3,0.3-0.5,0.7-0.8,0.9c-0.3,0.6-0.9,1-1.3,1.7
		c-0.4,0.4-0.7,0.8-1.1,1.3c-0.4,0.5-0.7,1-1.1,1.5c-0.1,0-0.3-0.1-0.4-0.1c0-0.3,0.4-0.4,0.5-0.7c0.2-0.2,0.4-0.4,0.5-0.6
		c0.3-0.4,0.5-0.8,0.7-1.1c0.7-0.6,1.2-1.6,1.9-2.2c0.3-0.6,1-1,1.3-1.7c0.6-0.6,1.2-1.3,1.6-2.1c-0.4-0.3-0.5-0.8-1-0.7
		c-0.5,0.4-0.7,0.8-1.2,1.1c-0.1,0.2-0.3,0.4-0.5,0.5c-0.4,0.6-1,0.8-1.4,1.4c-0.5,0.5-1.1,1.1-1.6,1.6c-0.8,0.8-2,1.7-2.6,2.6
		l-0.5,0.4c-0.1-0.2-0.4-0.4-0.5-0.6c0.6-0.5,1.4-1.2,1.9-1.8c0.6-0.6,1.2-1.2,1.8-1.8c0.9-0.7,1.5-1.4,2.2-2.2
		c0.8-0.5,1.1-1.3,1.9-1.8c0-0.1,0-0.1,0-0.2c-0.1-0.6-0.8-0.8-1-1.3c0-0.2-0.2-0.2-0.2-0.3c-0.5,0.3-1,0.7-1.4,1
		c0,0-0.4,0.3-0.8,0.5c-0.2,0.2-0.4,0.3-0.4,0.3c0,0.1-0.1,0.1-0.2,0.1c-1.5,1.2-3.2,2.4-4.8,3.7c-0.5,0.2-0.8,0.7-1.3,1
		c-0.1-0.1-0.3-0.1-0.4-0.4c0.4-0.1,0.5-0.5,0.9-0.6c0.1-0.2,0.5-0.4,0.6-0.6c0.3-0.1,0.5-0.5,0.9-0.6c0.5-0.2,0.7-0.8,1.2-1
		c0.6-0.6,1.3-1.1,2.1-1.7c0.2-0.1,0.4-0.2,0.5-0.4c0.5-0.4,0.8-0.8,1.4-1c0.3-0.4,0.9-0.6,1.2-1.1c0-0.4-0.4-0.5-0.5-0.8
		c-0.2-0.2-0.4,0.1-0.5,0.1c-1.1,0.8-2.3,1.4-3.5,2.1c-0.1,0.2-0.5,0.2-0.7,0.5C85.5,201,85.4,201.1,85.3,201.1L85.3,201.1z
		 M119.3,158.7h0.6c0.1-0.1,0.1-0.3,0.1-0.5c0.4-0.3,0.3-0.8,0.5-1.1c0-0.2,0.2-0.3,0.3-0.5c0-0.2,0.2-0.4,0.2-0.7
		c0.3-0.6,0.5-1.2,0.9-1.8c0-0.2,0.2-0.3,0.2-0.6c0.2-0.3,0.2-0.6,0.4-0.9c0-0.1,0-0.2,0-0.3c-0.2,0-0.4-0.2-0.5,0
		c0,0.2-0.2,0.5-0.3,0.7c-0.2,0.4-0.3,0.9-0.5,1.2c-0.1,0.4-0.2,1-0.5,1.4c0,0.1,0,0.2-0.1,0.3c-0.1,0.6-0.5,1-0.7,1.6
		C119.7,157.9,119.4,158.3,119.3,158.7L119.3,158.7L119.3,158.7z M126.5,209.6h-0.6h0c0.4,0.7,0.8,1.4,1.4,1.9
		c0.1,0.3,0.3,0.5,0.4,0.8c0.1,0.1,0.3,0.3,0.4,0.3c0.2-0.1,0.2-0.4,0.2-0.6c-0.4-0.3-0.6-0.8-0.9-1.2
		C127,210.4,126.8,210,126.5,209.6z"/>
</g>
<path fill="#262D3A" d="M144.7,303.6c-0.3-0.4-0.5-0.9-0.8-1.4c0,0,0-0.1-0.1-0.1c-0.1,0-0.1-0.2-0.1-0.2c-0.2-0.4-0.4-0.8-0.6-1.1
	c0-0.1-0.1-0.1,0-0.2c0.1,0,0.1-0.1,0.3-0.1c0.1,0.1,0.2,0.3,0.3,0.4c0.1,0.2,0.2,0.3,0.3,0.5c0,0.1,0.1,0.1,0.1,0.2
	c0.1,0.2,0.2,0.3,0.3,0.5l-0.1-0.3c-0.1-0.1-0.2-0.2-0.2-0.4c0,0,0-0.1,0-0.1c0,0,0-0.1-0.1-0.1c-0.1-0.1-0.2-0.2-0.2-0.2
	c-0.1-0.2-0.2-0.3-0.3-0.5c0,0,0-0.1,0.1-0.1c0.2-0.1,0.2-0.3,0.4-0.3c0,0,0,0,0,0l-2-12.3c0,0,0,0,0,0c-0.1-0.1-0.2-0.1-0.3-0.2
	c0.1-0.1,0.1-0.3,0.2-0.5l-0.1-0.4c-0.1,0.1-0.1,0.3-0.2,0.4c-0.1,0.1-0.1,0.4-0.3,0.3c-0.1-0.2-0.3,0-0.4-0.2c-0.1,0,0-0.1-0.1-0.2
	c0.2-0.5,0.3-1,0.4-1.5c0-0.2,0.1-0.5,0.2-0.7l-0.1-0.4c0,0.1,0,0.2-0.1,0.2c-0.1,0.4-0.3,0.8-0.3,1.2c-0.1,0.4-0.2,0.8-0.4,1.3
	c-0.2,0-0.3-0.1-0.5-0.1c-0.1,0,0-0.2-0.1-0.3c0-0.6,0.1-1.2,0.2-1.9c0-0.2,0.1-0.5,0-0.7c-0.1,0-0.1,0.1-0.2,0.1c0,0.3,0,0.6,0,0.9
	c-0.1,0.2-0.1,0.5-0.1,0.7c-0.1,0.3,0,0.7-0.1,1c0,0.1-0.1,0-0.2,0c-0.1,0-0.2,0-0.3,0c-0.1,0-0.2,0-0.2-0.1c0-0.4-0.1-0.9,0-1.3
	c0-0.3-0.1-0.7,0-1c0-0.1,0-0.3-0.1-0.4c-0.1,0-0.1,0-0.1,0.1c0,0.3,0.1,0.8,0,1.1c0.1,0.5,0,1.1,0,1.6c0,0-0.1,0.1-0.1,0.1l0,0
	c-0.1,0.1-0.2,0-0.4,0.1c-0.1-0.1,0-0.1-0.1-0.2c0-0.3-0.1-0.5-0.1-0.8c-0.1-0.1,0-0.3-0.1-0.5c0-0.5-0.2-0.9-0.2-1.4
	c-0.1,0-0.2,0-0.2,0c0,0.1,0,0.3,0.1,0.4c0,0.3,0.1,0.6,0.1,1c0.1,0.5,0.1,0.9,0.2,1.4c0,0.1-0.1,0.1-0.2,0.1
	c-0.1,0.1-0.3,0-0.4,0.1c-0.1,0-0.1,0-0.1-0.1c-0.1-0.3-0.2-0.6-0.2-0.9c-0.1-0.3-0.2-0.7-0.2-1c-0.1-0.3-0.1-0.6-0.2-0.8l-0.1,0
	c0,0,0,0.1,0,0.1c0.1,0.2,0,0.4,0.1,0.6c0,0.2,0.1,0.4,0.1,0.6c0.1,0.2,0.1,0.4,0.2,0.6c0,0.3,0.2,0.6,0.2,0.9
	c-0.1,0.1-0.2,0.2-0.3,0.3c-0.2,0-0.1-0.2-0.2-0.3c0-0.1-0.1-0.2-0.1-0.2c-0.1-0.3-0.2-0.7-0.4-0.9c-0.1-0.1,0-0.3-0.2-0.4
	c-0.1-0.3-0.2-0.6-0.3-0.9l0,0c-0.1,0-0.1,0-0.1,0.1c0.1,0.3,0.1,0.6,0.3,0.8c0.1,0.4,0.3,0.8,0.4,1.1c0,0.3,0.2,0.5,0.3,0.8
	c0,0.1-0.1,0.1-0.2,0.2c-0.1,0-0.1,0.1-0.2,0.1c-0.2-0.3-0.3-0.5-0.4-0.8c0-0.1-0.1-0.1-0.1-0.2c-0.2-0.3-0.2-0.7-0.4-1
	c0-0.3-0.2-0.5-0.2-0.8c-0.1,0-0.2-0.1-0.2,0c0,0.1,0,0.2,0,0.3c0.2,0.4,0.3,0.8,0.5,1.2c0.1,0.2,0.2,0.5,0.3,0.8
	c0,0.1,0.1,0.3,0.1,0.4c0,0.1,0,0.2-0.1,0.3c-0.1,0-0.2,0-0.3,0c0-0.1-0.1-0.2-0.1-0.3c-0.2-0.4-0.4-0.8-0.6-1.2
	c0-0.2-0.1-0.3-0.2-0.5c-0.1-0.2-0.2-0.4-0.3-0.6c-0.1-0.1,0-0.3-0.1-0.2c-0.3,0.2,0,0.3,0.1,0.5c0.1,0.2,0.2,0.4,0.3,0.6
	c0.2,0.3,0.3,0.6,0.5,0.9c0.2,0.2,0.2,0.5,0.4,0.7c0,0.2-0.2,0.1-0.3,0.2c0,0,0-0.1-0.1-0.1c-0.1,0-0.2-0.2-0.3-0.3
	c-0.2-0.3-0.4-0.7-0.6-1c-0.1-0.2-0.2-0.3-0.3-0.5c-0.1-0.1-0.1-0.2-0.2-0.3c-0.1-0.1-0.1-0.2-0.2-0.3c-0.2,0.2,0.1,0.4,0.1,0.5
	c0,0,0.1,0,0.1,0.1c0,0.1,0.1,0.2,0.2,0.2c0,0,0,0,0,0c0.3,0.5,0.5,0.9,0.8,1.4c0.1,0.2,0.2,0.3,0.2,0.5c0,0.1-0.1,0.1-0.2,0.1
	c-0.1,0-0.2,0-0.2-0.1c0-0.1-0.1-0.2-0.2-0.2c0-0.2-0.2-0.3-0.3-0.4c0,0-0.1-0.1-0.1-0.1c-0.1-0.1-0.1-0.2-0.2-0.3
	c-0.2-0.2-0.3-0.5-0.5-0.6c0-0.1-0.1-0.2-0.2-0.3c-0.1-0.1-0.1-0.2-0.3-0.3c-0.1,0.1,0,0.2,0,0.3c0.3,0.4,0.6,0.7,0.9,1.1
	c0,0,0,0.1,0.1,0.1c0.2,0.3,0.4,0.5,0.6,0.8c0.1,0.2-0.2,0.3-0.3,0.4c-0.1,0-0.1-0.1-0.2-0.1l0,0c-0.1,0-0.1-0.1-0.1-0.2
	c0,0,0,0-0.1,0c0,0-0.1-0.1-0.1-0.1c-0.1-0.1-0.2-0.3-0.3-0.3c-0.1-0.3-0.4-0.4-0.5-0.6c-0.3-0.3-0.5-0.6-0.7-0.9c0,0-0.1-0.1-0.1,0
	c0,0.1,0,0.2,0,0.2c0.2,0.1,0.3,0.3,0.5,0.5c0.2,0.3,0.4,0.5,0.7,0.8c0,0.1,0.1,0.1,0.1,0.2c0.1,0.1,0.2,0.3,0.4,0.4c0,0,0,0,0,0.1
	c0.1,0.1,0.2,0.2,0.2,0.3c-0.1,0.1-0.1,0.1-0.2,0.2c0,0,0,0-0.1,0c-0.1-0.1-0.2-0.1-0.2-0.2c-0.1-0.1-0.3-0.2-0.3-0.3
	c-0.1,0-0.1-0.1-0.2-0.2c-0.2-0.2-0.3-0.3-0.5-0.4c-0.1-0.2-0.3-0.2-0.3-0.3c0-0.1-0.2-0.1-0.2-0.2c-0.2-0.1-0.3-0.2-0.4-0.3
	c-0.1-0.1-0.2-0.3-0.3-0.3c0,0,0,0,0,0c-0.1,0,0,0.1,0,0.2c0,0,0,0.1,0,0.1c0,0,0.1,0.1,0.1,0.1c0.2,0.2,0.4,0.3,0.5,0.5
	c0.1,0,0.1,0.1,0.1,0.1c0,0,0,0,0,0c0.2,0.2,0.4,0.3,0.6,0.5c0.2,0.2,0.5,0.4,0.7,0.7c0.1,0,0.1,0.1,0.1,0.1c0,0.1,0.1,0.1,0.1,0.1
	c0,0.2-0.2,0.3-0.3,0.4l-0.1,0c-0.2-0.1-0.3-0.3-0.5-0.4c-0.1-0.1-0.2-0.1-0.2-0.2c-0.1-0.1-0.1-0.1-0.2-0.2
	c-0.1-0.1-0.2-0.2-0.4-0.3c-0.1-0.1-0.2-0.2-0.3-0.2c0,0-0.1,0-0.1,0c-0.1-0.1-0.2-0.1-0.2-0.2c-0.1-0.1-0.2-0.1-0.3-0.2
	c-0.1-0.1-0.3-0.3-0.3-0.3c-0.1,0-0.1-0.1-0.1,0c-0.1,0.2,0.2,0.2,0.3,0.4c0.1,0,0.2,0.1,0.3,0.2c0,0,0.1,0.1,0.1,0.1
	c0,0,0.1,0,0.1,0.1c0.1,0.1,0.2,0.2,0.4,0.2c0.1,0.1,0.2,0.2,0.3,0.2c0.1,0.1,0.3,0.2,0.4,0.3c0.3,0.2,0.5,0.4,0.8,0.6
	c0,0.1-0.1,0.3-0.3,0.4c-0.1-0.1-0.3-0.1-0.4-0.2c-0.1-0.1-0.2-0.2-0.3-0.2c-0.1-0.1-0.2-0.1-0.3-0.2c-0.1,0-0.1-0.1-0.2-0.1
	c-0.1-0.1-0.3-0.2-0.4-0.3c0,0,0,0,0,0c-0.1-0.1-0.2-0.1-0.3-0.2c-0.1,0-0.3-0.1-0.4-0.2c-0.1,0-0.1,0-0.2-0.1
	c-0.1,0-0.1-0.1-0.2-0.1c0,0-0.1,0.1,0,0.1c0.1,0.1,0.1,0.2,0.2,0.2c0.1,0.1,0.1,0.1,0.2,0.1c0.1,0,0.2,0.1,0.2,0.1
	c0.1,0,0.1,0.1,0.2,0.1c0.1,0.1,0.2,0.1,0.3,0.2c0,0,0,0,0,0c0.1,0,0.1,0.1,0.2,0.1c0.1,0.1,0.3,0.2,0.4,0.3c0,0,0.1,0.1,0.2,0.1
	c0.1,0.1,0.2,0.1,0.2,0.2c0.1,0,0.1,0.1,0.2,0.1c0.1,0,0.3,0.2,0.4,0.2c0,0,0,0.1,0,0.1c-0.1,0.1-0.1,0.3-0.3,0.5
	c-0.1,0-0.3-0.1-0.4-0.2c-0.1,0-0.1-0.1-0.2,0c0,0,0,0,0,0c-0.2-0.1-0.3-0.2-0.5-0.2c-0.1,0-0.2-0.1-0.2-0.1c0,0-0.1,0-0.1,0
	c-0.1-0.1-0.2-0.1-0.3-0.2c0,0-0.1-0.1-0.1-0.1c-0.1,0-0.1-0.1-0.2-0.1c-0.2-0.1-0.4-0.2-0.6-0.3c-0.1,0-0.1-0.1-0.2-0.1
	c-0.1-0.1-0.2-0.1-0.3-0.1c0,0-0.1,0-0.1,0c0,0-0.1,0.1,0,0.2c0.1,0,0.1,0.1,0.2,0.1c0.1,0.1,0.3,0.1,0.4,0.2c0.1,0,0.3,0.1,0.4,0.2
	c0,0,0.1,0,0.1,0c0.2,0,0.3,0.2,0.5,0.2c0.1,0,0.2,0.1,0.4,0.2c0,0,0.1,0,0.1,0c0.1,0.1,0.3,0.2,0.5,0.3c0.1,0,0.1,0.1,0.2,0.1
	c0.1,0.1,0.3,0.1,0.4,0.3c0,0.1,0,0.2-0.1,0.3c-0.1,0-0.1,0-0.2,0c-0.2-0.1-0.3-0.1-0.5-0.2c-0.2-0.1-0.3-0.1-0.5-0.2c0,0,0,0,0,0
	c-0.1,0-0.2-0.1-0.3-0.1c-0.2,0-0.3-0.2-0.5-0.2c-0.2-0.1-0.4-0.1-0.6-0.3c-0.1,0-0.2-0.1-0.3-0.1c-0.1,0-0.2-0.1-0.3-0.1
	c0,0-0.1,0.1-0.1,0.2c0,0.1,0.1,0.1,0.2,0.1c0.1,0.1,0.2,0.1,0.3,0.1c0.1,0,0.1,0.1,0.1,0c0.1,0.1,0.3,0.1,0.4,0.2
	c0.2,0,0.3,0.1,0.4,0.1c0.1,0.1,0.4,0.1,0.5,0.2c0.1,0,0.2,0.1,0.2,0.1c0,0,0.1,0,0.1,0.1c0.1,0,0.1,0.1,0.2,0
	c0.2,0.1,0.4,0.2,0.6,0.3c0.1,0,0.2,0,0.2,0.1l-0.1,0.6l-0.1,0.1c-0.2,0-0.4-0.1-0.6-0.1c-0.1-0.1-0.2-0.1-0.3-0.1c0,0,0,0,0,0
	c-0.3,0-0.6-0.1-0.8-0.2c-0.1,0-0.1,0-0.2-0.1c-0.3,0-0.6-0.2-0.8-0.2c-0.1-0.1-0.3-0.1-0.4-0.1c-0.1-0.1-0.2,0-0.2,0.1
	c0,0.1,0.2,0.1,0.3,0.1c0.1,0,0.2,0.1,0.3,0.1c0.1,0.1,0.3,0,0.4,0.1c0.2,0,0.3,0.1,0.4,0.1c0.1,0.1,0.3,0,0.4,0.1
	c0.2,0,0.3,0.1,0.5,0.1c0,0.1,0.1,0.1,0.2,0.1c0,0,0.1,0,0.1,0c0.3,0.1,0.6,0.1,0.8,0.3c0,0.2,0.1,0.4-0.1,0.5c-0.3,0-0.6,0-0.9-0.1
	c-0.5,0-0.9-0.1-1.4-0.1c-0.2,0-0.4,0-0.7,0c-0.2,0-0.4-0.1-0.6,0c0,0.1,0,0.1,0,0.2l1.6,0.1c0.3,0,0.6,0,1,0.1
	c0.3,0,0.7,0.1,0.9,0.1c0.1,0,0.1,0.1,0.1,0.1c0,0.2,0.1,0.4-0.1,0.5c-0.3,0-0.6,0-1,0c-0.1,0-0.2,0-0.3,0c-0.8-0.1-1.6,0-2.4,0
	c0,0.1,0,0.2,0.1,0.2c0.3,0,0.7,0,1,0c0.2-0.1,0.4,0,0.6,0c0.3,0,0.6,0,0.9,0c0.4,0,0.7,0,1.1,0l0.1,0.1c0,0.1,0.1,0.2,0,0.3
	c-0.4,0-0.8,0.1-1.1,0.1c0,0,0,0-0.1,0c-0.7,0-1.4,0.1-2.1,0.1c-0.1,0.1-0.3,0-0.4,0.1c0,0,0,0.1,0,0.1c0,0,0.1,0,0.1,0
	c0.5-0.1,0.9-0.1,1.3-0.1c0.1,0,0.2,0,0.2,0c0.3,0.1,0.6-0.1,0.8,0c0,0,0.1,0,0.1,0c0.4,0,0.8,0,1.2-0.1c0.1,0.1,0.1,0.2,0.1,0.3
	c0,0.1,0,0.2,0.1,0.3c0,0.1,0,0.1-0.1,0.2c-0.2,0.1-0.4,0-0.6,0.1c-0.3,0-0.6,0-0.9,0.1c-0.1,0-0.2,0-0.4,0.1c-0.1,0-0.2,0-0.4,0.1
	c-0.2,0-0.3,0.1-0.5,0c-0.1,0.1-0.3,0-0.4,0.1c-0.3,0-0.6,0-0.8,0.1c0,0.1,0,0.1,0,0.2c0.3,0,0.7-0.1,1-0.1c0-0.1,0.1,0,0.2,0
	c0.3,0,0.6-0.1,0.9-0.1c0.1,0,0.2-0.1,0.3-0.1c0.4-0.1,0.9-0.1,1.4-0.2c0.1,0,0.2,0,0.2,0.1c0,0.2,0.1,0.3,0,0.4
	c-0.3,0.1-0.7,0.2-1,0.3c0,0-0.1,0-0.1,0c-0.1,0-0.3,0.1-0.4,0.1c0,0-0.1,0-0.1,0.1c-0.1,0-0.2,0-0.3,0.1c0,0.1-0.1,0-0.2,0.1
	c-0.2,0-0.3,0.2-0.5,0.1c-0.1,0.1-0.3,0-0.4,0.1c-0.2,0-0.3,0.1-0.4,0.1c-0.1,0-0.1,0.1-0.1,0.2c0.2,0.2,0.4,0,0.6,0
	c0.3-0.2,0.7-0.2,1.1-0.4c0.1,0,0.1,0,0.2,0c0.1,0,0.3-0.1,0.4-0.2c0.1-0.1,0.3-0.1,0.4-0.1c0.2-0.1,0.4-0.1,0.6-0.2
	c0.1,0,0.2-0.1,0.3-0.1c0.1,0.1,0.2,0.3,0.2,0.4c-0.1,0.1-0.2,0.1-0.4,0.1c-0.1,0.1-0.2,0.1-0.3,0.2c-0.2,0.1-0.4,0.1-0.6,0.2
	c-0.1,0-0.2,0.1-0.3,0.1c-0.1,0-0.2,0-0.3,0.1c-0.1,0-0.2,0.1-0.3,0.1c-0.1,0-0.3,0.1-0.4,0.1c-0.1,0-0.2,0.1-0.3,0.1
	c-0.1,0.1-0.3,0-0.3,0.1c-0.1,0-0.2,0.1-0.3,0.1c0,0,0,0.1,0,0.1c0,0.1,0.1,0,0.1,0.1c0.2-0.1,0.5-0.2,0.7-0.3
	c0.2,0,0.3-0.1,0.5-0.2c0.1-0.1,0.2,0,0.3-0.1c0,0,0,0,0,0c0.2-0.1,0.4-0.2,0.6-0.2c0.1-0.1,0.3-0.1,0.5-0.2c0.3-0.1,0.7-0.3,1-0.3
	c0,0,0.1,0.1,0.1,0.1c0.1,0.2-0.2,0.2-0.3,0.3c-0.1,0-0.2,0.1-0.2,0.1c-0.1,0-0.2,0-0.3,0.1c-0.1,0-0.1,0.1-0.2,0.1
	c-0.1,0.1-0.2,0.1-0.4,0.2c-0.1,0-0.1,0.2-0.2,0.1c-0.1,0.1-0.3,0.1-0.4,0.2c-0.1,0-0.1,0.1-0.2,0.1c0,0,0,0,0,0
	c-0.1,0.1-0.2,0.1-0.3,0.1c-0.1,0.1-0.2,0.1-0.3,0.2c-0.1,0.1-0.3,0.1-0.4,0.2c-0.1,0-0.2,0.1-0.2,0.1c0,0,0.1,0.1,0.1,0.1
	c0.3-0.2,0.7-0.3,1.1-0.5c0.1,0,0.1-0.1,0.2-0.1c0.3-0.1,0.6-0.3,0.9-0.4c0.3-0.2,0.6-0.3,0.9-0.5c0.1,0,0.2-0.1,0.3-0.1
	c0.1,0.1,0.1,0.2,0.2,0.4c0,0.1,0.1,0.1,0.1,0.3c0,0.1-0.1,0.1-0.2,0.1c-0.2,0.1-0.4,0.2-0.5,0.4c-0.1,0-0.2,0.1-0.3,0.2
	c-0.1,0.1-0.2,0.1-0.3,0.2c-0.1,0.1-0.3,0.2-0.4,0.3l0,0c-0.1,0.1-0.2,0.1-0.3,0.2c-0.1,0.1-0.2,0.2-0.3,0.2
	c-0.1,0.1-0.2,0.2-0.3,0.2c-0.1,0-0.2,0.1-0.2,0.2c-0.1,0-0.1,0.1-0.2,0.1c0,0.1,0,0.1,0,0.2c0.1,0,0.2-0.1,0.3-0.2
	c0,0,0.1,0,0.1-0.1c0.1,0,0.1-0.1,0.2-0.1c0.1-0.1,0.2-0.2,0.3-0.2c0.2-0.2,0.5-0.3,0.7-0.5c0.4-0.3,0.8-0.5,1.3-0.8
	c0-0.1,0.1-0.1,0.2-0.1c0,0,0,0,0,0c0.1,0,0.1,0,0.2,0c0,0.1,0.1,0.2,0.2,0.3c0,0.1,0.2,0.2,0.1,0.3c-0.1,0.1-0.2,0.3-0.4,0.4
	c0,0,0,0,0,0c0,0.1-0.1,0.1-0.2,0.2c-0.7,0.6-1.4,1.3-2.1,1.9c0,0.1,0.1,0.1,0.1,0.1c0.3-0.2,0.5-0.4,0.7-0.7
	c0.2-0.1,0.4-0.3,0.6-0.5c0.2-0.3,0.5-0.5,0.8-0.7c0,0,0,0,0.1,0c0.1-0.1,0.2-0.3,0.4-0.3c0.1-0.1,0.2-0.2,0.4-0.2
	c0.1,0.1,0.2,0.1,0.2,0.3c-0.1,0.1-0.2,0.3-0.3,0.4c-0.2,0.2-0.4,0.4-0.5,0.6c0,0,0,0,0,0c-0.5,0.4-0.8,0.9-1.2,1.3
	c-0.1,0.1-0.3,0.2-0.3,0.4c0.1,0,0.1,0,0.2,0c0.3-0.3,0.6-0.7,1-1c0,0,0.1-0.1,0.1-0.1c0-0.1,0.1-0.1,0.2-0.2c0,0,0.1-0.1,0.1-0.1
	c0.1-0.1,0.2-0.3,0.3-0.4c0.2-0.3,0.4-0.5,0.7-0.7c0.1-0.1,0.1,0.1,0.2,0.1c0.1,0,0.2,0.1,0.1,0.2c-0.4,0.5-0.9,0.9-1.2,1.5
	c-0.1,0.1-0.2,0.1-0.2,0.2c-0.2,0.2-0.3,0.4-0.5,0.6c-0.1,0.1-0.3,0.3-0.4,0.5c0.1,0,0.1,0.1,0.2,0.1c0.1-0.1,0.2-0.2,0.3-0.4
	c0.2-0.1,0.3-0.3,0.4-0.5c0,0,0.1-0.1,0.1-0.1c0.1-0.1,0.1-0.2,0.2-0.2c0.5-0.5,0.9-1.1,1.4-1.6c0.1,0,0.2,0.1,0.3,0.2
	c0.1,0.1,0.2,0.1,0.2,0.2c-0.2,0.3-0.5,0.6-0.7,1c-0.3,0.4-0.7,0.9-1,1.3c-0.1,0.2-0.3,0.3-0.4,0.5c0,0,0.1,0,0.1,0
	c0.2-0.3,0.4-0.5,0.6-0.8c0.5-0.6,0.9-1.3,1.4-1.9c0.2,0.1,0.3,0.2,0.5,0.3c-0.2,0.5-0.5,1-0.7,1.5c-0.1,0.2-0.2,0.4-0.3,0.6
	c-0.2,0.3-0.3,0.6-0.5,0.9c0.1,0,0.2,0.1,0.2,0c0.2-0.3,0.3-0.7,0.5-1.1c0.1-0.2,0.2-0.5,0.4-0.7c0.1-0.3,0.3-0.6,0.5-1
	c0-0.1,0.1-0.2,0.2-0.2c0.1,0.1,0.3,0,0.3,0.2c-0.4,0.9-0.7,1.8-1.1,2.6c-0.1,0.1-0.2,0.3-0.1,0.5c0,0,0.1,0,0.1,0
	c0.2-0.6,0.5-1.2,0.7-1.8c0.2-0.2,0.2-0.5,0.3-0.8c0.1-0.1,0.1-0.4,0.3-0.5c0.1,0.1,0.3,0,0.4,0.2c-0.1,0.4-0.2,0.9-0.3,1.3
	c-0.1,0.4-0.2,0.8-0.4,1.2c0,0.2-0.1,0.4-0.1,0.5l0.2,0c0.2-0.4,0.2-0.8,0.3-1.2c0-0.2,0.1-0.4,0.2-0.5c0.1-0.4,0.2-0.8,0.3-1.3
	c0-0.1,0.1,0,0.2-0.1c0.1,0.1,0.3,0,0.3,0.1c-0.1,0.7-0.2,1.3-0.4,2c-0.2,0.4-0.1,0.9-0.3,1.3l0,0c0.1,0,0.1,0,0.2-0.1
	c0-0.4,0.2-0.6,0.2-1c0.1-0.2,0.1-0.4,0.1-0.6c0-0.1,0-0.2,0-0.3c0.1-0.4,0.2-0.8,0.2-1.2c0-0.2,0.2-0.1,0.3-0.1c0.1,0,0.1,0,0.2,0
	c0,0,0.1,0,0.1,0.1c0,1-0.1,2.1-0.1,3.1l0.1,0.1c0.1,0,0.1,0,0.1,0c0-0.4,0-0.8,0-1.2c0-0.2,0-0.4,0-0.6c0-0.3,0-0.5,0-0.8
	c0-0.2,0-0.4,0.1-0.5c0.1,0,0.2-0.1,0.2,0c0,0.9,0,1.8,0,2.7c0.1,0.1-0.1,0.3,0,0.4c0.1,0,0.1,0,0.2,0c0-0.5,0-1,0-1.5
	c0.1-0.4,0-0.7,0-1.1c0-0.1-0.1-0.3,0-0.4c0-0.1,0.1,0,0.2-0.1c0.2,0.1,0.4-0.1,0.6,0.1c0,0.2,0,0.5,0.1,0.7c0,0.5,0.1,0.9,0.1,1.4
	c0,0,0,0,0,0c0.1,0.2,0,0.4,0.1,0.6c0,0.1,0,0.3,0.1,0.3c0.1,0,0.1-0.1,0.2-0.1c0-0.7-0.2-1.3-0.2-1.9c0-0.4-0.1-0.7-0.1-1.1
	c0.1-0.1,0.2-0.1,0.3-0.1c0.1,0.1,0.1,0.2,0.1,0.3c0,0.3,0.1,0.5,0.2,0.7c0.1,0.1,0,0.2,0,0.3c0.1,0.4,0.2,0.9,0.3,1.3
	c0.1,0.2,0.1,0.5,0.2,0.7c0.1,0,0.2,0,0.2-0.1c-0.1-0.3-0.1-0.6-0.2-0.9c-0.1-0.7-0.4-1.5-0.5-2.2c0-0.1,0-0.1,0-0.2
	c0.2,0,0.3-0.1,0.4-0.1c0.1,0.2,0.2,0.4,0.3,0.6c0,0.2,0.2,0.4,0.2,0.6c0.1,0.2,0.1,0.4,0.3,0.6c0,0.2,0.1,0.4,0.2,0.6
	c0.1,0.2,0.2,0.5,0.3,0.8c0.1,0,0.1-0.1,0.2-0.1c0-0.1-0.1-0.1,0-0.2c-0.2-0.4-0.3-0.8-0.5-1.3c-0.1-0.2-0.1-0.4-0.2-0.6
	c0-0.3-0.2-0.4-0.3-0.7c0-0.2-0.2-0.4-0.2-0.6c0-0.1,0.1-0.1,0.2-0.1c0.3-0.2,0.2,0.3,0.4,0.4c0.2,0.7,0.5,1.4,0.8,2.1
	c0.2,0.2,0.2,0.5,0.3,0.8c0.1,0,0.1,0,0.1,0c0.1,0,0-0.1,0-0.2c-0.1-0.2-0.1-0.4-0.2-0.5c-0.2-0.6-0.5-1.1-0.7-1.7
	c-0.2-0.3-0.3-0.7-0.4-1c0-0.1,0.1-0.1,0.1-0.1c0.1-0.1,0.3-0.1,0.4-0.2c0.1-0.1,0.1,0,0.2,0.1c0.1,0.3,0.3,0.6,0.4,0.8
	c0.1,0.2,0.2,0.4,0.3,0.6c0,0.1,0.1,0.2,0.1,0.3c0.2,0.3,0.4,0.7,0.6,1c0.1,0.1,0,0.3,0.2,0.3c0,0,0.1-0.1,0.1-0.1L144.7,303.6z"/>
<polygon fill="#262D3A" points="142.2,393.1 144.5,437.6 185.2,424.3 185.2,426.6 144.6,439.9 144.8,444.4 185.2,431.2 185.2,433.5 
	145,446.7 145.2,451.2 185.2,438.2 185.2,440.5 145.3,453.5 147.7,500 190.5,500 196,393.1 "/>
<path fill="#262D3A" d="M165.5,404.1h2.3c2.3-86.5,5-216.2,2.2-267.5l-3.3,2.3C171.5,186.1,168.4,317.6,165.5,404.1z"/>
<path fill="#262D3A" d="M178.7,404.1c2-35.5,11.3-180.9,22.7-222.1l-3-2.1c-9.2,45.2-19.9,186.7-22.5,224.2H178.7z"/>
<path fill="#262D3A" d="M159.2,404.1h1.8c-7-54.2-24-146-26.5-158.5c-2-10.1-9.4-34.2-14.4-49.9l-3.5,0.4
	c5.2,14.8,13.1,38,15.9,51.1C135.2,260.1,153.3,351.7,159.2,404.1z"/>
<polygon fill="#262D3A" points="430.2,60 415.9,65.8 410.1,51.5 405.8,53.3 411.6,67.6 397.3,73.4 399,77.6 413.3,71.8 419.1,86.1 
	423.4,84.4 417.6,70.1 431.9,64.3 "/>
<g>
	<path fill="#262D3A" d="M322.9,134.4c0,0-1-0.5-0.2-0.9c0.8-0.5,6.4,0.6,6.4,0.6s0.5,1.1-0.5,0.9
		C327.6,134.8,322.9,134.4,322.9,134.4z"/>
	<path fill="#262D3A" d="M311,127.1c0,0-0.5-1,0.5-0.8c1,0.1,4.6,4.4,4.6,4.4s-0.3,1.2-1,0.4C314.5,130.3,311,127.1,311,127.1z"/>
	<path fill="#262D3A" d="M309.7,113.7c0,0,0.3-1.1,0.9-0.3c0.6,0.8,0.2,6.4,0.2,6.4s-1.1,0.6-1-0.4
		C309.9,118.4,309.7,113.7,309.7,113.7z"/>
	<path fill="#262D3A" d="M316.7,102c0,0,0.9-0.6,0.9,0.4c-0.1,1-4,5-4,5s-1.2-0.2-0.5-0.9C313.7,105.8,316.7,102,316.7,102z"/>
	<path fill="#262D3A" d="M330,101.3c0,0,1,0.6,0.1,1c-0.9,0.4-6.3-1.3-6.3-1.3s-0.4-1.2,0.6-0.9C325.3,100.4,330,101.3,330,101.3z"
		/>
	<path fill="#262D3A" d="M339.4,110.7c0,0,0.3,1.1-0.6,0.7c-0.9-0.4-3.5-5.4-3.5-5.4s0.6-1.1,1-0.2
		C336.7,106.7,339.4,110.7,339.4,110.7z"/>
	<path fill="#262D3A" d="M339.2,123.8c0,0-0.7,0.9-1,0c-0.3-0.9,1.9-6.1,1.9-6.1s1.2-0.3,0.8,0.7
		C340.6,119.2,339.2,123.8,339.2,123.8z"/>
	<path fill="#262D3A" d="M330.1,132.6c0,0-1.1,0.4-0.8-0.6c0.3-0.9,5.1-3.9,5.1-3.9s1.2,0.5,0.3,1
		C333.8,129.6,330.1,132.6,330.1,132.6z"/>
	<path fill="#262D3A" d="M316.9,142.5c0,0-1.1,0.4-0.8-0.6c0.3-0.9,5.1-3.9,5.1-3.9s1.2,0.5,0.3,1
		C320.6,139.5,316.9,142.5,316.9,142.5z"/>
	<path fill="#262D3A" d="M305.5,148.4c0,0-1.1,0.1-0.6-0.7c0.5-0.8,5.8-2.6,5.8-2.6s1,0.7,0.1,1
		C309.8,146.4,305.5,148.4,305.5,148.4z"/>
	<path fill="#262D3A" d="M293.2,153c0,0-1.1,0-0.6-0.8c0.6-0.8,6-2.2,6-2.2s0.9,0.8,0,1.1C297.7,151.4,293.2,153,293.2,153z"/>
	<path fill="#262D3A" d="M279.8,156.3c0,0-1.1-0.1-0.5-0.8c0.6-0.7,6.2-1.4,6.2-1.4s0.8,0.9-0.2,1
		C284.5,155.2,279.8,156.3,279.8,156.3z"/>
	<path fill="#262D3A" d="M265.9,156.9c0,0-1.1-0.3-0.3-0.9c0.8-0.6,6.4-0.3,6.4-0.3s0.7,1.1-0.3,1
		C270.7,156.7,265.9,156.9,265.9,156.9z"/>
	<path fill="#262D3A" d="M252.3,155.7c0,0-1-0.5-0.2-0.9c0.8-0.5,6.4,0.7,6.4,0.7s0.5,1.1-0.5,0.9
		C257.1,156.1,252.3,155.7,252.3,155.7z"/>
	<path fill="#262D3A" d="M334.9,135.4c0,0-1-0.4-0.2-0.9c0.8-0.5,6.4,0.2,6.4,0.2s0.6,1.1-0.4,1
		C339.6,135.5,334.9,135.4,334.9,135.4z"/>
	<path fill="#262D3A" d="M346.8,134.7c0,0-1.1-0.2-0.4-0.9c0.7-0.7,6.4-0.9,6.4-0.9s0.8,1-0.2,1C351.5,134,346.8,134.7,346.8,134.7z
		"/>
	<path fill="#262D3A" d="M358.3,132.5c0,0-1.1,0.1-0.6-0.7c0.5-0.8,5.9-2.5,5.9-2.5s1,0.8,0,1C362.7,130.5,358.3,132.5,358.3,132.5z
		"/>
	<path fill="#262D3A" d="M369.2,128c0,0-1.1,0.2-0.7-0.7c0.4-0.9,5.5-3.3,5.5-3.3s1.1,0.6,0.2,1C373.2,125.5,369.2,128,369.2,128z"
		/>
	<path fill="#262D3A" d="M380.2,121.3c0,0-1,0.4-0.8-0.5c0.2-0.9,4.8-4.3,4.8-4.3s1.2,0.4,0.4,1
		C383.7,118.1,380.2,121.3,380.2,121.3z"/>
	<path fill="#262D3A" d="M389.8,111.5c0,0-1,0.5-0.8-0.5c0.2-1,4.5-4.6,4.5-4.6s1.2,0.3,0.4,1C393.1,108,389.8,111.5,389.8,111.5z"
		/>
	<path fill="#262D3A" d="M398.6,100.5c0,0-0.9,0.7-0.9-0.3c-0.1-1,3.3-5.5,3.3-5.5s1.2,0,0.6,0.8C401,96.4,398.6,100.5,398.6,100.5z
		"/>
	<path fill="#262D3A" d="M405.1,88.8c0,0-0.7,0.8-1-0.1c-0.2-0.9,2.4-5.9,2.4-5.9s1.2-0.2,0.8,0.7C406.9,84.4,405.1,88.8,405.1,88.8
		z"/>
</g>
<g>
	
		<rect x="102.6" y="169.2" transform="matrix(0.2145 -0.9767 0.9767 0.2145 -93.8648 243.0662)" fill="#E7E5E4" width="3.3" height="21.3"/>
	
		<rect x="102.6" y="169.2" transform="matrix(0.9767 0.2145 -0.2145 0.9767 41.0117 -18.1618)" fill="#E7E5E4" width="3.3" height="21.3"/>
</g>
</svg>
