<?xml version="1.0" encoding="utf-8"?>
<!-- Generator: Adobe Illustrator 16.0.0, SVG Export Plug-In . SVG Version: 6.00 Build 0)  -->
<!DOCTYPE svg PUBLIC "-//W3C//DTD SVG 1.1//EN" "http://www.w3.org/Graphics/SVG/1.1/DTD/svg11.dtd">
<svg version="1.1" id="Layer_1" xmlns="http://www.w3.org/2000/svg" xmlns:xlink="http://www.w3.org/1999/xlink" x="0px" y="0px"
	 width="136.913px" height="136.914px" viewBox="0 0 136.913 136.914" enable-background="new 0 0 136.913 136.914"
	 xml:space="preserve">
<g>
	<g>
		<g>
			<g>
				<g>
					<circle fill="#344E5D" cx="68.457" cy="68.456" r="63.333"/>
				</g>
			</g>
		</g>
	</g>
	<g>
		<g>
			<g>
				<path fill="#E84849" d="M74.036,107.236c0,2.621-2.127,4.748-4.748,4.748H34.079c-2.623,0-4.748-2.127-4.748-4.748l16.93-32.738
					c0-2.621,2.123-4.746,4.748-4.746h1.35c2.623,0,4.748,2.125,4.748,4.746L74.036,107.236z"/>
			</g>
			<g>
				<path fill="#DB3F3E" d="M71.671,106.281c0,2.467-1.9,4.471-4.244,4.471H35.938c-2.342,0-4.242-2.004-4.242-4.471l4.877-9.934
					c0,0-0.273-2.426,9.955-0.889c10.225,1.539,18.996-1.695,18.996-1.695L71.671,106.281z"/>
			</g>
			<g>
				<path fill="#E84849" d="M56.104,74.613c0,1.344-0.656,2.434-1.467,2.434h-6.057c-0.813,0-1.469-1.09-1.469-2.434v-22.71
					c0-1.345,0.656-2.435,1.469-2.435h6.057c0.811,0,1.467,1.09,1.467,2.435V74.613z"/>
			</g>
			<g>
				<path fill="#E84849" d="M51.612,44.885c-5.117,0-7.145,0.601-7.145,2.646c0,0.059,0.016,0.117,0.021,0.176
					c0.23,1.962,2.156,5.645,7.123,5.645c4.963,0,6.887-3.683,7.117-5.645c0.008-0.059,0.021-0.117,0.021-0.176
					C58.751,45.485,56.726,44.885,51.612,44.885z"/>
				<g>
					<path fill="#DC3A3A" d="M51.612,48.411c3.834,0,5.355-0.45,5.355-1.983c0-0.464-1.436-1.057-5.096-1.057
						c-3.658,0-5.621,0.33-5.621,1.057C46.251,47.961,47.774,48.411,51.612,48.411z"/>
				</g>
			</g>
			<g>
				<g>
					<circle fill="#CBE9E6" cx="52.027" cy="36.511" r="5.532"/>
				</g>
				<g>
					<path fill="#DFF1EF" d="M47.687,37.191c-0.881-1.034,0.381-3.602,1.414-4.48c1.035-0.883,3.426-1.606,4.303-0.571
						C54.288,33.172,48.565,38.226,47.687,37.191z"/>
				</g>
			</g>
			<g>
				<g>
					<circle fill="#CBE9E6" cx="48.083" cy="24.338" r="3.951"/>
				</g>
				<g>
					<path fill="#DFF1EF" d="M44.981,24.826c-0.631-0.739,0.271-2.575,1.01-3.201c0.738-0.63,2.449-1.147,3.076-0.406
						C49.698,21.954,45.61,25.564,44.981,24.826z"/>
				</g>
			</g>
			<g>
				<g>
					<circle fill="#CBE9E6" cx="59.721" cy="27.25" r="4.269"/>
				</g>
				<g>
					<path fill="#DFF1EF" d="M56.372,27.775c-0.682-0.798,0.293-2.778,1.092-3.458c0.799-0.679,2.645-1.236,3.32-0.439
						C61.464,24.675,57.052,28.573,56.372,27.775z"/>
				</g>
			</g>
			<g>
				<path fill="#E84849" d="M57.282,72.793c0,1.607-0.496,2.91-1.115,2.91h-9.139c-0.617,0-1.117-1.303-1.117-2.91l0,0
					c0-1.605,0.5-2.908,1.117-2.908h9.139C56.786,69.885,57.282,71.188,57.282,72.793L57.282,72.793z"/>
			</g>
			<g>
				<g>
					<g>
						<path fill="#FFFFFF" d="M48.423,55.203c-0.307,0-0.561-0.222-0.576-0.505c-0.014-0.293,0.232-0.54,0.549-0.552
							c0.424-0.021,4.141-0.179,4.432-0.179c0.318,0,0.576,0.236,0.576,0.529c0,0.292-0.258,0.529-0.576,0.529
							c-0.199,0-2.729,0.104-4.377,0.174C48.44,55.203,48.433,55.203,48.423,55.203z"/>
					</g>
				</g>
				<g>
					<g>
						<path fill="#FFFFFF" d="M48.423,58.377c-0.307,0-0.561-0.221-0.576-0.503c-0.014-0.294,0.232-0.541,0.549-0.554
							c0.424-0.02,4.141-0.179,4.432-0.179c0.318,0,0.576,0.236,0.576,0.529c0,0.294-0.258,0.529-0.576,0.529
							c-0.199,0-2.729,0.104-4.377,0.175C48.44,58.377,48.433,58.377,48.423,58.377z"/>
					</g>
				</g>
				<g>
					<g>
						<path fill="#FFFFFF" d="M48.423,61.552c-0.307,0-0.561-0.222-0.576-0.506c-0.014-0.291,0.232-0.538,0.549-0.552
							c0.424-0.018,4.141-0.178,4.432-0.178c0.318,0,0.576,0.236,0.576,0.529s-0.258,0.529-0.576,0.529
							c-0.199,0-2.729,0.105-4.377,0.177C48.44,61.552,48.433,61.552,48.423,61.552z"/>
					</g>
				</g>
				<g>
					<g>
						<path fill="#FFFFFF" d="M48.423,64.725c-0.307,0-0.561-0.22-0.576-0.504c-0.014-0.291,0.232-0.539,0.549-0.553
							c0.424-0.019,4.141-0.177,4.432-0.177c0.318,0,0.576,0.236,0.576,0.528s-0.258,0.529-0.576,0.529
							c-0.199,0-2.729,0.105-4.377,0.176C48.44,64.725,48.433,64.725,48.423,64.725z"/>
					</g>
				</g>
				<g>
					<g>
						<path fill="#FFFFFF" d="M48.423,67.899c-0.307,0-0.561-0.223-0.576-0.504c-0.014-0.293,0.232-0.539,0.549-0.553
							c0.424-0.02,4.141-0.178,4.432-0.178c0.318,0,0.576,0.236,0.576,0.527c0,0.293-0.258,0.531-0.576,0.531
							c-0.199,0-2.729,0.105-4.377,0.174C48.44,67.899,48.433,67.899,48.423,67.899z"/>
					</g>
				</g>
			</g>
		</g>
		<g>
			<g>
				<g>
					<path fill="#039A88" d="M107.028,63.379c5.008-5.872,6.654-11.06,4.496-14.324c-2.021-3.059-7.162-3.682-13.9-1.786
						l-0.008-0.02l-0.018,0.006c-2.154-6.759-5.459-10.612-9.156-10.612c-3.963,0-7.408,4.323-9.539,11.893
						c-2.322-0.491-4.48-0.754-6.406-0.754c-4.336,0-7.291,1.266-8.551,3.663c-1.818,3.461,0.334,8.453,5.893,13.789l-0.012,0.014
						l0.014,0.013c-4.996,5.867-6.637,11.049-4.482,14.311c1.25,1.891,3.654,2.889,6.953,2.889c0.002,0,0.002,0,0.002,0
						c2.041,0,4.389-0.391,6.961-1.119c2.156,6.775,5.465,10.643,9.168,10.643c3.961,0,7.406-4.324,9.539-11.895
						c2.322,0.492,4.479,0.756,6.404,0.756l0,0c4.334,0,7.291-1.266,8.551-3.662C114.757,73.719,112.599,68.72,107.028,63.379z
						 M96.384,77.459c-1.566-0.412-3.172-0.914-4.811-1.521c1.094-0.639,2.176-1.297,3.234-1.994
						c0.85-0.564,1.686-1.148,2.506-1.744C97.087,74.033,96.771,75.787,96.384,77.459z M80.772,78.574
						c-0.484-1.875-0.873-3.877-1.15-6.002c1.131,0.682,2.279,1.344,3.449,1.959c1.117,0.588,2.262,1.135,3.416,1.66
						C84.538,77.146,82.628,77.936,80.772,78.574z M75.063,66.831c-0.203-0.156-0.396-0.316-0.596-0.475
						c-0.424-0.336-0.838-0.675-1.236-1.016c-0.098-0.083-0.191-0.166-0.287-0.249c0.1-0.103,0.193-0.206,0.293-0.31
						c0.391-0.407,0.797-0.813,1.213-1.217c0.199-0.194,0.396-0.389,0.602-0.582c0.555-0.521,1.129-1.038,1.723-1.552
						c0.064-0.056,0.127-0.113,0.191-0.169c-0.002,0.037-0.002,0.074-0.002,0.111c-0.043,0.977-0.066,1.958-0.066,2.938
						c0,1.206,0.041,2.41,0.105,3.611c0.006,0.117,0.004,0.234,0.01,0.354c-0.014-0.01-0.025-0.02-0.039-0.029
						C76.315,67.782,75.681,67.308,75.063,66.831z M85.31,52.688c-1.094,0.638-2.178,1.297-3.234,1.994
						c-0.846,0.56-1.682,1.146-2.506,1.744c0.229-1.834,0.545-3.588,0.93-5.26C82.065,51.577,83.671,52.079,85.31,52.688z
						 M90.503,52.38c0.879-0.429,1.75-0.822,2.611-1.188c0.232-0.099,0.463-0.184,0.693-0.278c0.639-0.259,1.271-0.502,1.896-0.725
						c0.137-0.048,0.271-0.093,0.408-0.14c0.035,0.137,0.07,0.271,0.105,0.408c0.158,0.638,0.303,1.293,0.438,1.96
						c0.049,0.24,0.102,0.475,0.148,0.719c0.17,0.908,0.318,1.839,0.445,2.796c0.004,0.034,0.008,0.07,0.012,0.104
						c-0.098-0.059-0.199-0.11-0.299-0.168c-1.033-0.615-2.082-1.213-3.152-1.776c-1.025-0.538-2.07-1.044-3.125-1.531
						c-0.092-0.042-0.182-0.092-0.273-0.134C90.442,52.412,90.472,52.394,90.503,52.38z M97.794,64.312
						c0,1.641-0.061,3.297-0.184,4.931c-1.285,0.996-2.633,1.961-4.012,2.873c-1.502,0.992-3.057,1.93-4.625,2.791
						c-1.65-0.701-3.291-1.479-4.883-2.314c-1.623-0.852-3.223-1.781-4.76-2.762c-0.045-0.545-0.08-1.093-0.113-1.642
						c-0.02-0.324-0.047-0.646-0.063-0.973c-0.043-0.965-0.066-1.936-0.066-2.904c0-0.868,0.02-1.737,0.053-2.603
						c0.012-0.288,0.033-0.57,0.049-0.856c0.025-0.494,0.055-0.987,0.09-1.477c1.293-1.001,2.637-1.964,4.004-2.866
						c1.5-0.99,3.049-1.926,4.613-2.784c0.525,0.222,1.049,0.455,1.57,0.694c0.256,0.115,0.514,0.225,0.768,0.345
						c0.861,0.405,1.715,0.826,2.557,1.268c0.861,0.453,1.711,0.928,2.551,1.417c0.26,0.152,0.514,0.314,0.771,0.471
						c0.488,0.294,0.973,0.591,1.449,0.895C97.716,60.625,97.794,62.472,97.794,64.312z M99.856,60.338
						c1.471,1.037,2.828,2.106,4.082,3.195c-1.219,1.293-2.557,2.576-4.025,3.833c0.045-1.018,0.072-2.039,0.072-3.055
						C99.985,62.984,99.933,61.657,99.856,60.338z M109.696,50.264c1.529,2.313-0.107,6.721-4.279,11.637
						c-1.727-1.501-3.662-2.961-5.77-4.356v-0.002l-0.002-0.001c-0.061-0.605-0.135-1.199-0.211-1.789
						c-0.016-0.105-0.023-0.213-0.039-0.317c-0.107-0.785-0.23-1.552-0.365-2.307c-0.041-0.228-0.088-0.448-0.131-0.673
						c-0.102-0.524-0.205-1.042-0.32-1.551c-0.059-0.267-0.123-0.526-0.188-0.788c-0.061-0.246-0.113-0.501-0.176-0.743
						c2.361-0.665,4.541-1.015,6.354-1.015C106.335,48.358,108.655,48.688,109.696,50.264z M88.442,38.834
						c2.605,0,5.273,3.454,7.072,9.087c-0.25,0.086-0.506,0.188-0.76,0.278c-0.242,0.088-0.484,0.175-0.73,0.268
						c-0.51,0.194-1.023,0.401-1.541,0.618c-0.199,0.083-0.395,0.159-0.594,0.246c-0.721,0.311-1.445,0.641-2.176,0.993
						c-0.064,0.031-0.131,0.066-0.195,0.099c-0.574,0.279-1.15,0.567-1.729,0.872l-0.002-0.001l-0.002,0.001
						c-2.303-0.931-4.566-1.691-6.752-2.265C82.833,42.71,85.63,38.834,88.442,38.834z M65.886,52.463
						c0.844-1.606,3.191-2.49,6.611-2.49c1.752,0,3.719,0.227,5.859,0.675c-0.549,2.379-0.947,4.93-1.189,7.601l-0.002,0.001v0.002
						c-0.461,0.368-0.906,0.741-1.346,1.114c-0.078,0.064-0.158,0.127-0.234,0.191c-0.57,0.489-1.123,0.982-1.66,1.478
						c-0.172,0.157-0.332,0.316-0.498,0.474c-0.373,0.351-0.736,0.702-1.092,1.057c-0.176,0.177-0.348,0.354-0.518,0.531
						c-0.168,0.173-0.346,0.344-0.508,0.518C66.667,59.14,64.597,54.918,65.886,52.463z M72.313,80.268
						c-1.766,0-4.086-0.33-5.127-1.906c-1.529-2.313,0.109-6.721,4.279-11.638c0.156,0.137,0.326,0.271,0.486,0.408
						c0.166,0.139,0.332,0.279,0.502,0.42c0.373,0.309,0.76,0.615,1.152,0.918c0.146,0.117,0.291,0.232,0.441,0.347
						c0.545,0.416,1.105,0.828,1.682,1.234c0.063,0.045,0.129,0.088,0.193,0.133c0.432,0.301,0.865,0.602,1.313,0.896v0.004h0.002
						c0.297,2.918,0.777,5.658,1.432,8.168C76.306,79.918,74.126,80.268,72.313,80.268L72.313,80.268z M88.442,89.791
						c-2.605,0-5.275-3.455-7.074-9.088c2.496-0.854,5.088-1.984,7.725-3.373h0.002h0.002c2.303,0.93,4.566,1.691,6.752,2.266
						C94.05,85.914,91.255,89.791,88.442,89.791z M110.997,76.162c-0.844,1.605-3.193,2.49-6.611,2.49
						c-1.752,0-3.719-0.227-5.859-0.674c0.549-2.379,0.947-4.928,1.189-7.6l0.002-0.002v-0.004c2.176-1.739,4.139-3.538,5.855-5.361
						C110.216,69.486,112.286,73.707,110.997,76.162z"/>
				</g>
			</g>
			<g>
				<g>
					<circle fill="#00B39A" cx="93.63" cy="41.729" r="3.18"/>
				</g>
			</g>
			<g>
				<g>
					<circle fill="#00B39A" cx="71.442" cy="80.901" r="3.179"/>
				</g>
			</g>
			<g>
				<g>
					<circle fill="#00B39A" cx="99.108" cy="69.67" r="3.18"/>
				</g>
			</g>
		</g>
	</g>
</g>
</svg>
